<svg width="152" height="152" viewBox="0 0 152 152" fill="none" xmlns="http://www.w3.org/2000/svg">
<rect x="0.5" y="0.5" width="151" height="151" fill="white"/>
<mask id="path-2-inside-1_1_2063" fill="white">
<path d="M65.6349 93.0099V77.0014H66.7578V93.0099H65.6349ZM71.5362 43.0428L72.5702 43.5075L72.4354 43.8213L72.2863 44.1277L72.1246 44.4248L71.9503 44.7144L71.7661 44.9966L71.5721 45.2722L71.3691 45.5414L71.1589 45.8049L70.9424 46.0629L70.7214 46.3162L70.495 46.5648L70.265 46.8097L70.0332 47.0519L69.7997 47.2893L69.5661 47.525L69.3325 47.7578L69.1007 47.9887L68.8717 48.2178L68.6453 48.446L68.4234 48.6732L68.2069 48.8995L67.9967 49.1249L67.7936 49.3502L67.5987 49.5747L67.4136 49.7982L67.2376 50.0226L67.0723 50.247L66.9195 50.4715L66.7794 50.6959L66.6518 50.9204L66.5386 51.1457L66.4398 51.373L65.4085 50.9017L65.5343 50.614L65.6753 50.3337L65.8298 50.0599L65.9969 49.7926L66.1748 49.5318L66.3626 49.2757L66.5593 49.0243L66.7641 48.7766L66.9752 48.5326L67.1926 48.2923L67.4145 48.0548L67.64 47.8192L67.8691 47.5855L68.1 47.3527L68.3326 47.1208L68.5644 46.8898L68.7953 46.6589L69.0244 46.427L69.2517 46.1951L69.4745 45.9632L69.6936 45.7295L69.9066 45.4957L70.1132 45.2592L70.3126 45.0217L70.5031 44.7824L70.6845 44.5412L70.8561 44.2972L71.0169 44.0513L71.166 43.8036L71.3035 43.5522L71.4275 43.2989L71.538 43.0409L71.5362 43.0428ZM85.0536 53.486H66.1335V52.2949H85.0536L85.6151 52.89L85.0536 53.4851V53.486ZM85.0536 52.2949H85.6151V52.89L85.0536 52.2949ZM84.4921 72.2147V52.8909H85.6151V72.2147L85.0536 72.8098L84.4921 72.2147ZM85.6151 72.2147V72.8098H85.0536L85.6151 72.2147ZM66.1335 71.6196H85.0536V72.8107H66.1335L65.572 72.2156L66.1335 71.6206V71.6196ZM66.1335 72.8107H65.572V72.2156L66.1335 72.8107ZM66.695 52.8909V72.2147H65.572V52.8909L66.1335 52.2958L66.695 52.8909ZM65.572 52.8909V52.2958H66.1335L65.572 52.8909ZM63.2956 101.735H87.419V102.926H63.2956L62.7341 102.331L63.2956 101.736V101.735ZM63.2956 102.926H62.7341V102.331L63.2956 102.926ZM62.7341 51.1345H63.8571V52.7298V54.326V55.9231V57.5202V59.1183V60.7173V62.3163V63.9153V65.5152V67.1151V68.7159V70.3168V71.9176V73.5185V75.1193V76.7211V78.3229V79.9247V81.5265V83.1282V84.73V86.3318V87.9336V89.5344V91.1353V92.7361V94.337V95.9369V97.5368V99.1367V100.736V102.335H62.7341V100.736V99.1367V97.5368V95.9369V94.337V92.7361V91.1353V89.5344V87.9336V86.3318V84.73V83.1282V81.5265V79.9247V78.3229V76.7211V75.1193V73.5185V71.9176V70.3168V68.7159V67.1151V65.5152V63.9153V62.3163V60.7173V59.1183V57.5202V55.9231V54.326V52.7298V51.1345ZM71.4544 38.5447V39.7358L72.0159 39.1408L71.9871 39.5924L71.9072 40.0366L71.7796 40.4715L71.6116 40.8953L71.4068 41.3106L71.1696 41.7176L70.9046 42.118L70.6145 42.5138L70.3027 42.9049L69.9721 43.2923L69.6254 43.677L69.266 44.0588L68.8959 44.4387L68.5186 44.8168L68.1377 45.1931L67.7541 45.5684L67.3732 45.9409L66.9968 46.3124L66.6276 46.6831L66.2691 47.0509L65.9242 47.4169L65.5963 47.7811L65.289 48.1424L65.0043 48.5L64.7446 48.8539L64.5147 49.2022L64.3161 49.5449L64.1508 49.8801L64.0215 50.2061L63.9289 50.5236L63.8732 50.831L63.8544 51.1318H62.7314L62.7593 50.6782L62.8401 50.2331L62.9677 49.7972L63.1357 49.3717L63.3405 48.9554L63.5777 48.5466L63.8427 48.1452L64.132 47.7494L64.4437 47.3573L64.7752 46.969L65.1211 46.5844L65.4804 46.2016L65.8505 45.8207L66.2278 45.4426L66.6087 45.0664L66.9914 44.6911L67.3723 44.3186L67.7487 43.947L68.1179 43.5773L68.4764 43.2095L68.8213 42.8435L69.1483 42.4803L69.4565 42.1199L69.7413 41.7623L70 41.4093L70.23 41.061L70.4285 40.7193L70.5938 40.3849L70.7223 40.0599L70.8148 39.7442L70.8705 39.4378L70.8893 39.1389L71.4508 38.5438L71.4544 38.5447ZM70.8929 39.1398V38.5447H71.4544L70.8929 39.1398ZM79.5243 39.0886H78.4013L78.9628 39.6837H78.4885L78.0609 39.6846L77.6755 39.6855L77.3314 39.6865L77.0251 39.6874L76.7529 39.6893L76.5112 39.6911L76.2974 39.693L76.1088 39.6949L75.9417 39.6967L75.7943 39.6986L75.6614 39.7014L75.5401 39.7032L75.4287 39.706L75.3227 39.7079L75.2212 39.7107L75.117 39.7135L75.011 39.7153L74.8969 39.7181L74.7747 39.72L74.64 39.7228L74.4881 39.7247L74.3183 39.7265L74.1279 39.7284L73.9123 39.7302L73.6697 39.7321L73.3957 39.734L73.0867 39.7349L72.7417 39.7358L72.3564 39.7368L71.9278 39.7377H71.4526V38.5466H71.9269L72.3546 38.5457L72.7399 38.5447L73.084 38.5438L73.3904 38.5429L73.6626 38.541L73.9042 38.5392L74.118 38.5373L74.3076 38.5354L74.4738 38.5336L74.6211 38.5317L74.754 38.5289L74.8744 38.5271L74.9858 38.5243L75.0918 38.5224L75.1933 38.5196L75.2975 38.5168L75.4036 38.5149L75.5167 38.5122L75.6389 38.5103L75.7737 38.5075L75.9255 38.5056L76.0944 38.5038L76.2848 38.5019L76.5004 38.5L76.743 38.4982L77.017 38.4963L77.3251 38.4954L77.6701 38.4945L78.0555 38.4935L78.484 38.4926H78.9592L79.5207 39.0877L79.5243 39.0886ZM78.9628 38.4935H79.5243V39.0886L78.9628 38.4935ZM87.9795 51.0098H86.8566L86.8377 50.7173L86.7802 50.4165L86.6841 50.1055L86.5512 49.7833L86.3805 49.4517L86.1748 49.1118L85.9367 48.7663L85.6681 48.4143L85.3725 48.0586L85.0536 47.6991L84.714 47.3368L84.3565 46.9727L83.9855 46.6058L83.6028 46.237L83.2129 45.8664L82.8176 45.4948L82.4206 45.1214L82.0253 44.747L81.6345 44.3708L81.2518 43.9927L80.879 43.6127L80.5196 43.229L80.1774 42.8435L79.8549 42.4542L79.5548 42.0612L79.2799 41.6626L79.0347 41.2575L78.8218 40.844L78.6466 40.4213L78.5145 39.9882L78.4301 39.544L78.4004 39.0914H79.5234L79.5422 39.3838L79.5997 39.6846L79.6959 39.9957L79.8288 40.3179L79.9995 40.6494L80.2052 40.9893L80.4433 41.3348L80.7119 41.6868L81.0074 42.0426L81.3264 42.4021L81.6659 42.7643L82.0235 43.1284L82.3945 43.4954L82.7772 43.8641L83.1671 44.2348L83.5615 44.6064L83.9585 44.9798L84.3538 45.3542L84.7446 45.7304L85.1273 46.1085L85.5001 46.4885L85.8594 46.8721L86.2017 47.2577L86.5242 47.647L86.8243 48.0399L87.0991 48.4385L87.3444 48.8436L87.5573 49.2571L87.7325 49.6799L87.8645 50.1129L87.949 50.5572L87.9786 51.0098H87.9795ZM86.8566 102.331V51.0098H87.9795V102.331L87.4181 102.926L86.8566 102.331ZM87.9795 102.331V102.926H87.4181L87.9795 102.331ZM72.015 22.7132V39.1398H70.892V22.7132L71.4535 22.1181L72.015 22.7132ZM70.892 22.7132V22.1181H71.4535L70.892 22.7132ZM78.9619 23.3083H71.4526V22.1172H78.9619L79.5234 22.7123L78.9619 23.3074V23.3083ZM78.9619 22.1172H79.5234V22.7123L78.9619 22.1172ZM78.4004 39.0877V22.7123H79.5234V39.0877H78.4004ZM70.7232 21.3387L71.8021 22.2457L71.105 23.1798L70.026 22.2727L69.8131 21.8071L70.7232 21.3387ZM70.026 22.2727L69.814 22.0948L69.8131 21.8071L70.026 22.2727ZM70.9316 19.8477L70.9361 21.8043L69.8131 21.8071L69.8086 19.8505L70.053 19.3578L70.9316 19.8477ZM69.8086 19.8505L69.8077 19.5357L70.0521 19.3578L69.8077 19.8505H69.8086ZM71.7706 19.5516L70.6872 20.3403L70.053 19.3578L71.1364 18.5691L71.4535 18.4648L71.7706 19.5516V19.5516ZM71.1364 18.5691L71.2792 18.4648H71.4535L71.1364 18.5691ZM78.9628 19.6559H71.4535V18.4648H78.9628L79.2799 18.5691L78.9628 19.6559V19.6559ZM78.9628 18.4648H79.1371L79.2799 18.5691L78.9628 18.4648ZM79.7228 20.3357L78.6448 19.5516L79.279 18.5691L80.357 19.3532L80.6014 19.844L79.7228 20.3347V20.3357ZM80.357 19.3532L80.6014 19.5311V19.8449L80.357 19.3541V19.3532ZM79.4785 21.8052V19.844H80.6014V21.8052L80.3885 22.2718L79.4785 21.8052ZM80.6014 21.8052V22.093L80.3885 22.2718L80.6014 21.8052ZM78.6142 22.2457L79.6923 21.3387L80.3894 22.2718L79.3114 23.1788L78.6142 22.2457ZM73.0876 13.6017V19.0589H71.9647V13.6017L72.5261 13.0066L73.0876 13.6017V13.6017ZM71.9647 13.6017V13.0066H72.5261L71.9647 13.6017ZM77.8893 14.1968H72.5261V13.0057H77.8893L78.4507 13.6008L77.8893 14.1958V14.1968ZM77.8893 13.0057H78.4507V13.6008L77.8893 13.0057ZM77.3278 19.0589V13.6017H78.4507V19.0589H77.3278Z"/>
</mask>
<path d="M65.6349 93.0099V77.0014H66.7578V93.0099H65.6349ZM71.5362 43.0428L72.5702 43.5075L72.4354 43.8213L72.2863 44.1277L72.1246 44.4248L71.9503 44.7144L71.7661 44.9966L71.5721 45.2722L71.3691 45.5414L71.1589 45.8049L70.9424 46.0629L70.7214 46.3162L70.495 46.5648L70.265 46.8097L70.0332 47.0519L69.7997 47.2893L69.5661 47.525L69.3325 47.7578L69.1007 47.9887L68.8717 48.2178L68.6453 48.446L68.4234 48.6732L68.2069 48.8995L67.9967 49.1249L67.7936 49.3502L67.5987 49.5747L67.4136 49.7982L67.2376 50.0226L67.0723 50.247L66.9195 50.4715L66.7794 50.6959L66.6518 50.9204L66.5386 51.1457L66.4398 51.373L65.4085 50.9017L65.5343 50.614L65.6753 50.3337L65.8298 50.0599L65.9969 49.7926L66.1748 49.5318L66.3626 49.2757L66.5593 49.0243L66.7641 48.7766L66.9752 48.5326L67.1926 48.2923L67.4145 48.0548L67.64 47.8192L67.8691 47.5855L68.1 47.3527L68.3326 47.1208L68.5644 46.8898L68.7953 46.6589L69.0244 46.427L69.2517 46.1951L69.4745 45.9632L69.6936 45.7295L69.9066 45.4957L70.1132 45.2592L70.3126 45.0217L70.5031 44.7824L70.6845 44.5412L70.8561 44.2972L71.0169 44.0513L71.166 43.8036L71.3035 43.5522L71.4275 43.2989L71.538 43.0409L71.5362 43.0428ZM85.0536 53.486H66.1335V52.2949H85.0536L85.6151 52.89L85.0536 53.4851V53.486ZM85.0536 52.2949H85.6151V52.89L85.0536 52.2949ZM84.4921 72.2147V52.8909H85.6151V72.2147L85.0536 72.8098L84.4921 72.2147ZM85.6151 72.2147V72.8098H85.0536L85.6151 72.2147ZM66.1335 71.6196H85.0536V72.8107H66.1335L65.572 72.2156L66.1335 71.6206V71.6196ZM66.1335 72.8107H65.572V72.2156L66.1335 72.8107ZM66.695 52.8909V72.2147H65.572V52.8909L66.1335 52.2958L66.695 52.8909ZM65.572 52.8909V52.2958H66.1335L65.572 52.8909ZM63.2956 101.735H87.419V102.926H63.2956L62.7341 102.331L63.2956 101.736V101.735ZM63.2956 102.926H62.7341V102.331L63.2956 102.926ZM62.7341 51.1345H63.8571V52.7298V54.326V55.9231V57.5202V59.1183V60.7173V62.3163V63.9153V65.5152V67.1151V68.7159V70.3168V71.9176V73.5185V75.1193V76.7211V78.3229V79.9247V81.5265V83.1282V84.73V86.3318V87.9336V89.5344V91.1353V92.7361V94.337V95.9369V97.5368V99.1367V100.736V102.335H62.7341V100.736V99.1367V97.5368V95.9369V94.337V92.7361V91.1353V89.5344V87.9336V86.3318V84.73V83.1282V81.5265V79.9247V78.3229V76.7211V75.1193V73.5185V71.9176V70.3168V68.7159V67.1151V65.5152V63.9153V62.3163V60.7173V59.1183V57.5202V55.9231V54.326V52.7298V51.1345ZM71.4544 38.5447V39.7358L72.0159 39.1408L71.9871 39.5924L71.9072 40.0366L71.7796 40.4715L71.6116 40.8953L71.4068 41.3106L71.1696 41.7176L70.9046 42.118L70.6145 42.5138L70.3027 42.9049L69.9721 43.2923L69.6254 43.677L69.266 44.0588L68.8959 44.4387L68.5186 44.8168L68.1377 45.1931L67.7541 45.5684L67.3732 45.9409L66.9968 46.3124L66.6276 46.6831L66.2691 47.0509L65.9242 47.4169L65.5963 47.7811L65.289 48.1424L65.0043 48.5L64.7446 48.8539L64.5147 49.2022L64.3161 49.5449L64.1508 49.8801L64.0215 50.2061L63.9289 50.5236L63.8732 50.831L63.8544 51.1318H62.7314L62.7593 50.6782L62.8401 50.2331L62.9677 49.7972L63.1357 49.3717L63.3405 48.9554L63.5777 48.5466L63.8427 48.1452L64.132 47.7494L64.4437 47.3573L64.7752 46.969L65.1211 46.5844L65.4804 46.2016L65.8505 45.8207L66.2278 45.4426L66.6087 45.0664L66.9914 44.6911L67.3723 44.3186L67.7487 43.947L68.1179 43.5773L68.4764 43.2095L68.8213 42.8435L69.1483 42.4803L69.4565 42.1199L69.7413 41.7623L70 41.4093L70.23 41.061L70.4285 40.7193L70.5938 40.3849L70.7223 40.0599L70.8148 39.7442L70.8705 39.4378L70.8893 39.1389L71.4508 38.5438L71.4544 38.5447ZM70.8929 39.1398V38.5447H71.4544L70.8929 39.1398ZM79.5243 39.0886H78.4013L78.9628 39.6837H78.4885L78.0609 39.6846L77.6755 39.6855L77.3314 39.6865L77.0251 39.6874L76.7529 39.6893L76.5112 39.6911L76.2974 39.693L76.1088 39.6949L75.9417 39.6967L75.7943 39.6986L75.6614 39.7014L75.5401 39.7032L75.4287 39.706L75.3227 39.7079L75.2212 39.7107L75.117 39.7135L75.011 39.7153L74.8969 39.7181L74.7747 39.72L74.64 39.7228L74.4881 39.7247L74.3183 39.7265L74.1279 39.7284L73.9123 39.7302L73.6697 39.7321L73.3957 39.734L73.0867 39.7349L72.7417 39.7358L72.3564 39.7368L71.9278 39.7377H71.4526V38.5466H71.9269L72.3546 38.5457L72.7399 38.5447L73.084 38.5438L73.3904 38.5429L73.6626 38.541L73.9042 38.5392L74.118 38.5373L74.3076 38.5354L74.4738 38.5336L74.6211 38.5317L74.754 38.5289L74.8744 38.5271L74.9858 38.5243L75.0918 38.5224L75.1933 38.5196L75.2975 38.5168L75.4036 38.5149L75.5167 38.5122L75.6389 38.5103L75.7737 38.5075L75.9255 38.5056L76.0944 38.5038L76.2848 38.5019L76.5004 38.5L76.743 38.4982L77.017 38.4963L77.3251 38.4954L77.6701 38.4945L78.0555 38.4935L78.484 38.4926H78.9592L79.5207 39.0877L79.5243 39.0886ZM78.9628 38.4935H79.5243V39.0886L78.9628 38.4935ZM87.9795 51.0098H86.8566L86.8377 50.7173L86.7802 50.4165L86.6841 50.1055L86.5512 49.7833L86.3805 49.4517L86.1748 49.1118L85.9367 48.7663L85.6681 48.4143L85.3725 48.0586L85.0536 47.6991L84.714 47.3368L84.3565 46.9727L83.9855 46.6058L83.6028 46.237L83.2129 45.8664L82.8176 45.4948L82.4206 45.1214L82.0253 44.747L81.6345 44.3708L81.2518 43.9927L80.879 43.6127L80.5196 43.229L80.1774 42.8435L79.8549 42.4542L79.5548 42.0612L79.2799 41.6626L79.0347 41.2575L78.8218 40.844L78.6466 40.4213L78.5145 39.9882L78.4301 39.544L78.4004 39.0914H79.5234L79.5422 39.3838L79.5997 39.6846L79.6959 39.9957L79.8288 40.3179L79.9995 40.6494L80.2052 40.9893L80.4433 41.3348L80.7119 41.6868L81.0074 42.0426L81.3264 42.4021L81.6659 42.7643L82.0235 43.1284L82.3945 43.4954L82.7772 43.8641L83.1671 44.2348L83.5615 44.6064L83.9585 44.9798L84.3538 45.3542L84.7446 45.7304L85.1273 46.1085L85.5001 46.4885L85.8594 46.8721L86.2017 47.2577L86.5242 47.647L86.8243 48.0399L87.0991 48.4385L87.3444 48.8436L87.5573 49.2571L87.7325 49.6799L87.8645 50.1129L87.949 50.5572L87.9786 51.0098H87.9795ZM86.8566 102.331V51.0098H87.9795V102.331L87.4181 102.926L86.8566 102.331ZM87.9795 102.331V102.926H87.4181L87.9795 102.331ZM72.015 22.7132V39.1398H70.892V22.7132L71.4535 22.1181L72.015 22.7132ZM70.892 22.7132V22.1181H71.4535L70.892 22.7132ZM78.9619 23.3083H71.4526V22.1172H78.9619L79.5234 22.7123L78.9619 23.3074V23.3083ZM78.9619 22.1172H79.5234V22.7123L78.9619 22.1172ZM78.4004 39.0877V22.7123H79.5234V39.0877H78.4004ZM70.7232 21.3387L71.8021 22.2457L71.105 23.1798L70.026 22.2727L69.8131 21.8071L70.7232 21.3387ZM70.026 22.2727L69.814 22.0948L69.8131 21.8071L70.026 22.2727ZM70.9316 19.8477L70.9361 21.8043L69.8131 21.8071L69.8086 19.8505L70.053 19.3578L70.9316 19.8477ZM69.8086 19.8505L69.8077 19.5357L70.0521 19.3578L69.8077 19.8505H69.8086ZM71.7706 19.5516L70.6872 20.3403L70.053 19.3578L71.1364 18.5691L71.4535 18.4648L71.7706 19.5516V19.5516ZM71.1364 18.5691L71.2792 18.4648H71.4535L71.1364 18.5691ZM78.9628 19.6559H71.4535V18.4648H78.9628L79.2799 18.5691L78.9628 19.6559V19.6559ZM78.9628 18.4648H79.1371L79.2799 18.5691L78.9628 18.4648ZM79.7228 20.3357L78.6448 19.5516L79.279 18.5691L80.357 19.3532L80.6014 19.844L79.7228 20.3347V20.3357ZM80.357 19.3532L80.6014 19.5311V19.8449L80.357 19.3541V19.3532ZM79.4785 21.8052V19.844H80.6014V21.8052L80.3885 22.2718L79.4785 21.8052ZM80.6014 21.8052V22.093L80.3885 22.2718L80.6014 21.8052ZM78.6142 22.2457L79.6923 21.3387L80.3894 22.2718L79.3114 23.1788L78.6142 22.2457ZM73.0876 13.6017V19.0589H71.9647V13.6017L72.5261 13.0066L73.0876 13.6017V13.6017ZM71.9647 13.6017V13.0066H72.5261L71.9647 13.6017ZM77.8893 14.1968H72.5261V13.0057H77.8893L78.4507 13.6008L77.8893 14.1958V14.1968ZM77.8893 13.0057H78.4507V13.6008L77.8893 13.0057ZM77.3278 19.0589V13.6017H78.4507V19.0589H77.3278Z" fill="white" stroke="#728536" stroke-width="2" mask="url(#path-2-inside-1_1_2063)"/>
<mask id="path-3-inside-2_1_2063" fill="white">
<path d="M58.9209 138.995C58.2131 138.995 57.3236 138.288 56.2523 136.874C55.1811 135.46 54.1144 133.759 53.0531 131.771C51.9909 129.783 51.1267 127.96 50.4596 126.301C49.9949 127.938 49.4489 129.958 48.8216 132.361C48.478 133.721 47.9827 135.571 47.3354 137.91C46.8093 137.91 46.3446 137.756 45.9406 137.448C45.5365 137.139 45.334 136.762 45.334 136.316C45.334 135.997 45.4759 135.412 45.7589 134.562C47.113 130.139 48.356 126.328 49.4887 123.128C50.6205 119.929 51.9349 116.543 53.431 112.97C52.6626 113.097 52 113.284 51.444 113.528C50.8881 113.772 50.2869 114.075 49.6397 114.436C49.2555 114.67 49.0132 114.787 48.912 114.787C48.77 114.787 48.5784 114.681 48.3352 114.468C48.0929 114.255 47.9718 114.074 47.9718 113.926C50.5599 112.757 52.8344 112.171 54.7951 112.171C56.0489 112.171 57.2621 112.384 58.4346 112.809C59.607 113.235 60.5725 113.894 61.3309 114.787C62.0885 115.679 62.4681 116.795 62.4681 118.135C62.4681 120.027 61.7449 121.489 60.2995 122.52C58.854 123.551 57.2765 124.232 55.5689 124.562C53.8604 124.89 52.3896 125.056 51.1557 125.056C51.3581 125.438 51.5444 125.789 51.717 126.108C51.8888 126.427 52.0452 126.713 52.1862 126.969C53.0558 128.606 53.8188 129.956 54.4769 131.019C55.1332 132.082 55.9522 133.204 56.933 134.383C57.913 135.563 59.0917 136.749 60.4667 137.939C60.3456 138.216 60.1277 138.461 59.814 138.673C59.5013 138.885 59.202 138.992 58.92 138.992L58.9209 138.995ZM50.9441 124.548C52.5415 124.441 54.0584 124.121 55.493 123.59C56.9285 123.059 58.1109 122.283 59.042 121.262C59.9722 120.241 60.4369 118.977 60.4369 117.467C60.4369 115.851 59.9162 114.676 58.8739 113.943C57.8334 113.21 56.5443 112.843 55.0075 112.843C53.7944 115.395 52.4402 119.296 50.9432 124.548H50.9441ZM63.5611 135.455C63.2781 135.455 63.0458 135.381 62.8632 135.232C62.6815 135.083 62.5902 134.871 62.5902 134.594C62.5902 134.254 62.7818 133.951 63.166 133.685C63.5502 133.419 63.9443 133.286 64.3484 133.286C64.8736 133.286 65.1367 133.542 65.1367 134.052C65.1367 134.371 64.9704 134.684 64.6368 134.992C64.3032 135.301 63.9443 135.455 63.5602 135.455H63.5611ZM70.9313 136.156C70.1023 136.156 69.4957 135.89 69.1106 135.359C68.7264 134.828 68.5348 134.126 68.5348 133.254C68.5348 132.382 68.7065 131.468 69.051 130.512C69.3945 129.555 69.8392 128.757 70.3852 128.119C70.9313 127.481 71.4773 127.162 72.0233 127.162C72.205 127.162 72.4174 127.216 72.6597 127.322C72.4165 127.534 72.1245 128.001 71.7801 128.725C71.4366 129.448 71.1374 130.218 70.8852 131.036C70.632 131.855 70.5064 132.519 70.5064 133.03C70.5064 134.242 70.8698 134.848 71.5984 134.848C72.0233 134.848 72.5286 134.614 73.1153 134.146C73.702 133.678 74.2778 133.062 74.8437 132.297C74.2778 131.807 73.8376 131.17 73.5248 130.383C73.2111 129.597 73.0547 128.778 73.0547 127.928C73.0547 126.822 73.3232 125.876 73.8584 125.089C74.3944 124.303 75.1176 123.909 76.027 123.909C76.7954 123.909 77.336 124.126 77.6497 124.563C77.9634 124.998 78.1198 125.599 78.1198 126.364C78.1198 127.172 77.9326 128.081 77.5584 129.091C77.1841 130.1 76.6942 131.084 76.0876 132.04C76.4519 132.253 76.8361 132.36 77.2402 132.36C77.8269 132.36 78.4334 132.174 79.0608 131.802C79.6873 131.43 80.1628 130.851 80.4864 130.064L80.8498 130.383C80.4656 131.319 79.9196 132.009 79.2118 132.455C78.5039 132.902 77.7762 133.125 77.0277 133.125C76.4817 133.125 75.9963 133.018 75.5714 132.805C74.8437 133.805 74.0708 134.614 73.2518 135.23C72.4328 135.847 71.6599 136.155 70.9322 136.155L70.9313 136.156ZM75.3888 131.468C75.914 130.639 76.3389 129.794 76.6634 128.933C76.9862 128.071 77.1489 127.28 77.1489 126.556C77.1489 125.961 77.063 125.514 76.8903 125.217C76.7186 124.92 76.5016 124.771 76.2386 124.771C75.9556 124.771 75.6672 124.915 75.3743 125.202C75.0806 125.488 74.8383 125.881 74.6466 126.381C74.4541 126.881 74.3583 127.428 74.3583 128.024C74.3583 128.683 74.4441 129.316 74.6159 129.921C74.7877 130.526 75.0462 131.043 75.3897 131.468H75.3888ZM82.4254 136.093C81.5965 136.093 80.9845 135.795 80.5903 135.2C80.1953 134.605 79.9991 133.807 79.9991 132.808C79.9991 130.895 80.6256 128.296 81.8803 125.011C83.1333 121.726 84.5335 118.766 86.0812 116.129C87.6279 113.493 88.7443 112.174 89.4322 112.174C89.7152 112.174 89.9529 112.434 90.1446 112.955C90.3362 113.476 90.4329 114.003 90.4329 114.534C90.4329 115.512 90.0542 116.952 89.2957 118.855C88.5373 120.758 87.542 122.688 86.3081 124.643C85.0741 126.6 83.7597 128.183 82.3658 129.395C82.1027 130.629 81.9707 131.702 81.9707 132.617C81.9707 134.254 82.4155 135.072 83.305 135.072C84.0535 135.072 84.8165 134.574 85.5948 133.574C86.3731 132.575 87.0656 131.373 87.6722 129.97L88.1278 130.226C86.3885 134.137 84.4883 136.094 82.4263 136.094L82.4254 136.093ZM82.6379 128.312C83.7498 127.141 84.8364 125.67 85.8986 123.894C86.9598 122.118 87.824 120.418 88.4912 118.792C89.1583 117.165 89.4919 115.991 89.4919 115.268C89.4919 114.927 89.4214 114.758 89.2795 114.758C88.9965 114.758 88.4152 115.486 87.5357 116.942C86.6561 118.398 85.7512 120.179 84.821 122.285C83.8908 124.389 83.1631 126.399 82.637 128.312H82.6379ZM92.8891 121.359C92.5257 121.359 92.2274 121.269 91.9941 121.088C91.7618 120.907 91.6452 120.646 91.6452 120.307C91.6452 119.881 91.8884 119.498 92.3729 119.159C92.8583 118.819 93.3537 118.649 93.8591 118.649C94.5262 118.649 94.8598 118.979 94.8598 119.638C94.8598 120.042 94.6528 120.43 94.2387 120.802C93.8247 121.174 93.3745 121.36 92.8891 121.36V121.359ZM89.2496 135.966C88.5011 135.966 87.9253 135.716 87.5212 135.216C87.1162 134.717 86.9146 134.074 86.9146 133.286C86.9146 132.457 87.1424 131.309 87.5962 129.842C88.0509 128.375 88.6177 127.089 89.2948 125.983C89.9719 124.876 90.6345 124.324 91.2809 124.324C91.4635 124.324 91.6199 124.387 91.751 124.515C91.882 124.642 91.9489 124.813 91.9489 125.025C91.9489 125.323 91.6253 126.035 90.9781 127.162C90.3109 128.332 89.7803 129.379 89.3852 130.304C88.9911 131.229 88.794 132.105 88.794 132.934C88.794 133.678 88.9106 134.184 89.143 134.45C89.3753 134.716 89.755 134.848 90.2802 134.848C91.8576 134.848 93.4143 133.221 94.9511 129.969L95.2241 130.288C94.6582 132.075 93.8247 133.467 92.7218 134.466C91.6199 135.465 90.4628 135.965 89.2496 135.965V135.966ZM96.468 136.157C95.639 136.157 95.0324 135.891 94.6473 135.36C94.2631 134.829 94.0715 134.127 94.0715 133.255C94.0715 132.383 94.2432 131.469 94.5877 130.513C94.9312 129.556 95.3759 128.758 95.922 128.12C96.468 127.482 97.014 127.163 97.56 127.163C97.7417 127.163 97.9541 127.217 98.1964 127.323C97.9532 127.535 97.6612 128.002 97.3168 128.726C96.9733 129.449 96.675 130.219 96.4219 131.037C96.1696 131.856 96.0431 132.52 96.0431 133.031C96.0431 134.243 96.4074 134.849 97.1351 134.849C97.56 134.849 98.0653 134.615 98.6511 134.147C99.2378 133.679 99.8136 133.063 100.38 132.297C99.8136 131.808 99.3743 131.171 99.0606 130.384C98.7478 129.598 98.5905 128.779 98.5905 127.929C98.5905 126.823 98.859 125.877 99.3942 125.09C99.9302 124.304 100.653 123.91 101.563 123.91C102.331 123.91 102.872 124.127 103.185 124.564C103.498 124.999 103.656 125.6 103.656 126.365C103.656 127.173 103.468 128.082 103.094 129.092C102.72 130.101 102.23 131.085 101.623 132.041C101.987 132.254 102.371 132.361 102.776 132.361C103.363 132.361 103.969 132.175 104.596 131.802C105.222 131.431 105.698 130.852 106.021 130.065L106.385 130.383C106 131.32 105.454 132.01 104.747 132.456C104.039 132.903 103.311 133.126 102.563 133.126C102.017 133.126 101.531 133.019 101.106 132.806C100.379 133.806 99.6057 134.614 98.7867 135.231C97.9677 135.848 97.1948 136.156 96.4671 136.156L96.468 136.157ZM100.926 131.469C101.452 130.64 101.877 129.795 102.2 128.934C102.523 128.072 102.686 127.281 102.686 126.557C102.686 125.962 102.6 125.515 102.428 125.218C102.256 124.921 102.039 124.772 101.776 124.772C101.493 124.772 101.205 124.915 100.912 125.202C100.619 125.489 100.376 125.882 100.184 126.382C99.9917 126.881 99.8959 127.429 99.8959 128.025C99.8959 128.684 99.9818 129.316 100.154 129.922C100.325 130.527 100.584 131.044 100.927 131.469H100.926Z"/>
</mask>
<path d="M58.9209 138.995C58.2131 138.995 57.3236 138.288 56.2523 136.874C55.1811 135.46 54.1144 133.759 53.0531 131.771C51.9909 129.783 51.1267 127.96 50.4596 126.301C49.9949 127.938 49.4489 129.958 48.8216 132.361C48.478 133.721 47.9827 135.571 47.3354 137.91C46.8093 137.91 46.3446 137.756 45.9406 137.448C45.5365 137.139 45.334 136.762 45.334 136.316C45.334 135.997 45.4759 135.412 45.7589 134.562C47.113 130.139 48.356 126.328 49.4887 123.128C50.6205 119.929 51.9349 116.543 53.431 112.97C52.6626 113.097 52 113.284 51.444 113.528C50.8881 113.772 50.2869 114.075 49.6397 114.436C49.2555 114.67 49.0132 114.787 48.912 114.787C48.77 114.787 48.5784 114.681 48.3352 114.468C48.0929 114.255 47.9718 114.074 47.9718 113.926C50.5599 112.757 52.8344 112.171 54.7951 112.171C56.0489 112.171 57.2621 112.384 58.4346 112.809C59.607 113.235 60.5725 113.894 61.3309 114.787C62.0885 115.679 62.4681 116.795 62.4681 118.135C62.4681 120.027 61.7449 121.489 60.2995 122.52C58.854 123.551 57.2765 124.232 55.5689 124.562C53.8604 124.89 52.3896 125.056 51.1557 125.056C51.3581 125.438 51.5444 125.789 51.717 126.108C51.8888 126.427 52.0452 126.713 52.1862 126.969C53.0558 128.606 53.8188 129.956 54.4769 131.019C55.1332 132.082 55.9522 133.204 56.933 134.383C57.913 135.563 59.0917 136.749 60.4667 137.939C60.3456 138.216 60.1277 138.461 59.814 138.673C59.5013 138.885 59.202 138.992 58.92 138.992L58.9209 138.995ZM50.9441 124.548C52.5415 124.441 54.0584 124.121 55.493 123.59C56.9285 123.059 58.1109 122.283 59.042 121.262C59.9722 120.241 60.4369 118.977 60.4369 117.467C60.4369 115.851 59.9162 114.676 58.8739 113.943C57.8334 113.21 56.5443 112.843 55.0075 112.843C53.7944 115.395 52.4402 119.296 50.9432 124.548H50.9441ZM63.5611 135.455C63.2781 135.455 63.0458 135.381 62.8632 135.232C62.6815 135.083 62.5902 134.871 62.5902 134.594C62.5902 134.254 62.7818 133.951 63.166 133.685C63.5502 133.419 63.9443 133.286 64.3484 133.286C64.8736 133.286 65.1367 133.542 65.1367 134.052C65.1367 134.371 64.9704 134.684 64.6368 134.992C64.3032 135.301 63.9443 135.455 63.5602 135.455H63.5611ZM70.9313 136.156C70.1023 136.156 69.4957 135.89 69.1106 135.359C68.7264 134.828 68.5348 134.126 68.5348 133.254C68.5348 132.382 68.7065 131.468 69.051 130.512C69.3945 129.555 69.8392 128.757 70.3852 128.119C70.9313 127.481 71.4773 127.162 72.0233 127.162C72.205 127.162 72.4174 127.216 72.6597 127.322C72.4165 127.534 72.1245 128.001 71.7801 128.725C71.4366 129.448 71.1374 130.218 70.8852 131.036C70.632 131.855 70.5064 132.519 70.5064 133.03C70.5064 134.242 70.8698 134.848 71.5984 134.848C72.0233 134.848 72.5286 134.614 73.1153 134.146C73.702 133.678 74.2778 133.062 74.8437 132.297C74.2778 131.807 73.8376 131.17 73.5248 130.383C73.2111 129.597 73.0547 128.778 73.0547 127.928C73.0547 126.822 73.3232 125.876 73.8584 125.089C74.3944 124.303 75.1176 123.909 76.027 123.909C76.7954 123.909 77.336 124.126 77.6497 124.563C77.9634 124.998 78.1198 125.599 78.1198 126.364C78.1198 127.172 77.9326 128.081 77.5584 129.091C77.1841 130.1 76.6942 131.084 76.0876 132.04C76.4519 132.253 76.8361 132.36 77.2402 132.36C77.8269 132.36 78.4334 132.174 79.0608 131.802C79.6873 131.43 80.1628 130.851 80.4864 130.064L80.8498 130.383C80.4656 131.319 79.9196 132.009 79.2118 132.455C78.5039 132.902 77.7762 133.125 77.0277 133.125C76.4817 133.125 75.9963 133.018 75.5714 132.805C74.8437 133.805 74.0708 134.614 73.2518 135.23C72.4328 135.847 71.6599 136.155 70.9322 136.155L70.9313 136.156ZM75.3888 131.468C75.914 130.639 76.3389 129.794 76.6634 128.933C76.9862 128.071 77.1489 127.28 77.1489 126.556C77.1489 125.961 77.063 125.514 76.8903 125.217C76.7186 124.92 76.5016 124.771 76.2386 124.771C75.9556 124.771 75.6672 124.915 75.3743 125.202C75.0806 125.488 74.8383 125.881 74.6466 126.381C74.4541 126.881 74.3583 127.428 74.3583 128.024C74.3583 128.683 74.4441 129.316 74.6159 129.921C74.7877 130.526 75.0462 131.043 75.3897 131.468H75.3888ZM82.4254 136.093C81.5965 136.093 80.9845 135.795 80.5903 135.2C80.1953 134.605 79.9991 133.807 79.9991 132.808C79.9991 130.895 80.6256 128.296 81.8803 125.011C83.1333 121.726 84.5335 118.766 86.0812 116.129C87.6279 113.493 88.7443 112.174 89.4322 112.174C89.7152 112.174 89.9529 112.434 90.1446 112.955C90.3362 113.476 90.4329 114.003 90.4329 114.534C90.4329 115.512 90.0542 116.952 89.2957 118.855C88.5373 120.758 87.542 122.688 86.3081 124.643C85.0741 126.6 83.7597 128.183 82.3658 129.395C82.1027 130.629 81.9707 131.702 81.9707 132.617C81.9707 134.254 82.4155 135.072 83.305 135.072C84.0535 135.072 84.8165 134.574 85.5948 133.574C86.3731 132.575 87.0656 131.373 87.6722 129.97L88.1278 130.226C86.3885 134.137 84.4883 136.094 82.4263 136.094L82.4254 136.093ZM82.6379 128.312C83.7498 127.141 84.8364 125.67 85.8986 123.894C86.9598 122.118 87.824 120.418 88.4912 118.792C89.1583 117.165 89.4919 115.991 89.4919 115.268C89.4919 114.927 89.4214 114.758 89.2795 114.758C88.9965 114.758 88.4152 115.486 87.5357 116.942C86.6561 118.398 85.7512 120.179 84.821 122.285C83.8908 124.389 83.1631 126.399 82.637 128.312H82.6379ZM92.8891 121.359C92.5257 121.359 92.2274 121.269 91.9941 121.088C91.7618 120.907 91.6452 120.646 91.6452 120.307C91.6452 119.881 91.8884 119.498 92.3729 119.159C92.8583 118.819 93.3537 118.649 93.8591 118.649C94.5262 118.649 94.8598 118.979 94.8598 119.638C94.8598 120.042 94.6528 120.43 94.2387 120.802C93.8247 121.174 93.3745 121.36 92.8891 121.36V121.359ZM89.2496 135.966C88.5011 135.966 87.9253 135.716 87.5212 135.216C87.1162 134.717 86.9146 134.074 86.9146 133.286C86.9146 132.457 87.1424 131.309 87.5962 129.842C88.0509 128.375 88.6177 127.089 89.2948 125.983C89.9719 124.876 90.6345 124.324 91.2809 124.324C91.4635 124.324 91.6199 124.387 91.751 124.515C91.882 124.642 91.9489 124.813 91.9489 125.025C91.9489 125.323 91.6253 126.035 90.9781 127.162C90.3109 128.332 89.7803 129.379 89.3852 130.304C88.9911 131.229 88.794 132.105 88.794 132.934C88.794 133.678 88.9106 134.184 89.143 134.45C89.3753 134.716 89.755 134.848 90.2802 134.848C91.8576 134.848 93.4143 133.221 94.9511 129.969L95.2241 130.288C94.6582 132.075 93.8247 133.467 92.7218 134.466C91.6199 135.465 90.4628 135.965 89.2496 135.965V135.966ZM96.468 136.157C95.639 136.157 95.0324 135.891 94.6473 135.36C94.2631 134.829 94.0715 134.127 94.0715 133.255C94.0715 132.383 94.2432 131.469 94.5877 130.513C94.9312 129.556 95.3759 128.758 95.922 128.12C96.468 127.482 97.014 127.163 97.56 127.163C97.7417 127.163 97.9541 127.217 98.1964 127.323C97.9532 127.535 97.6612 128.002 97.3168 128.726C96.9733 129.449 96.675 130.219 96.4219 131.037C96.1696 131.856 96.0431 132.52 96.0431 133.031C96.0431 134.243 96.4074 134.849 97.1351 134.849C97.56 134.849 98.0653 134.615 98.6511 134.147C99.2378 133.679 99.8136 133.063 100.38 132.297C99.8136 131.808 99.3743 131.171 99.0606 130.384C98.7478 129.598 98.5905 128.779 98.5905 127.929C98.5905 126.823 98.859 125.877 99.3942 125.09C99.9302 124.304 100.653 123.91 101.563 123.91C102.331 123.91 102.872 124.127 103.185 124.564C103.498 124.999 103.656 125.6 103.656 126.365C103.656 127.173 103.468 128.082 103.094 129.092C102.72 130.101 102.23 131.085 101.623 132.041C101.987 132.254 102.371 132.361 102.776 132.361C103.363 132.361 103.969 132.175 104.596 131.802C105.222 131.431 105.698 130.852 106.021 130.065L106.385 130.383C106 131.32 105.454 132.01 104.747 132.456C104.039 132.903 103.311 133.126 102.563 133.126C102.017 133.126 101.531 133.019 101.106 132.806C100.379 133.806 99.6057 134.614 98.7867 135.231C97.9677 135.848 97.1948 136.156 96.4671 136.156L96.468 136.157ZM100.926 131.469C101.452 130.64 101.877 129.795 102.2 128.934C102.523 128.072 102.686 127.281 102.686 126.557C102.686 125.962 102.6 125.515 102.428 125.218C102.256 124.921 102.039 124.772 101.776 124.772C101.493 124.772 101.205 124.915 100.912 125.202C100.619 125.489 100.376 125.882 100.184 126.382C99.9917 126.881 99.8959 127.429 99.8959 128.025C99.8959 128.684 99.9818 129.316 100.154 129.922C100.325 130.527 100.584 131.044 100.927 131.469H100.926Z" fill="white" stroke="#728536" stroke-width="2" mask="url(#path-3-inside-2_1_2063)"/>
<rect x="0.5" y="0.5" width="151" height="151" stroke="#728536"/>
</svg>
