<svg width="152" height="152" viewBox="0 0 152 152" fill="none" xmlns="http://www.w3.org/2000/svg">
<rect x="1" y="1" width="150" height="150" fill="white"/>
<path d="M65.6354 93.0096V77.0011H66.7583V93.0096H65.6354ZM71.5366 43.0425L72.5706 43.5072L72.4359 43.821L72.2868 44.1274L72.1251 44.4245L71.9508 44.7141L71.7666 44.9963L71.5726 45.2719L71.3695 45.541L71.1593 45.8046L70.9428 46.0626L70.7218 46.3159L70.4955 46.5645L70.2655 46.8094L70.0337 47.0516L69.8001 47.289L69.5666 47.5246L69.333 47.7575L69.1012 47.9884L68.8721 48.2175L68.6458 48.4457L68.4239 48.6729L68.2074 48.8992L67.9972 49.1246L67.7941 49.3499L67.5992 49.5744L67.4141 49.7979L67.238 50.0223L67.0728 50.2467L66.92 50.4712L66.7799 50.6956L66.6523 50.92L66.5391 51.1454L66.4403 51.3726L65.409 50.9014L65.5348 50.6137L65.6758 50.3333L65.8303 50.0596L65.9974 49.7923L66.1753 49.5315L66.3631 49.2754L66.5598 49.024L66.7646 48.7763L66.9757 48.5323L67.1931 48.292L67.415 48.0545L67.6405 47.8189L67.8696 47.5852L68.1005 47.3524L68.3331 47.1205L68.5649 46.8895L68.7958 46.6586L69.0249 46.4267L69.2521 46.1948L69.4749 45.9629L69.6941 45.7292L69.907 45.4954L70.1137 45.2589L70.3131 45.0214L70.5035 44.7821L70.685 44.5409L70.8566 44.2969L71.0174 44.051L71.1665 43.8033L71.304 43.5519L71.4279 43.2986L71.5384 43.0406L71.5366 43.0425ZM85.0541 53.4857H66.134V52.2946H85.0541L85.6155 52.8897L85.0541 53.4848V53.4857ZM85.0541 52.2946H85.6155V52.8897L85.0541 52.2946ZM84.4926 72.2144V52.8906H85.6155V72.2144L85.0541 72.8095L84.4926 72.2144ZM85.6155 72.2144V72.8095H85.0541L85.6155 72.2144ZM66.134 71.6193H85.0541V72.8104H66.134L65.5725 72.2153L66.134 71.6202V71.6193ZM66.134 72.8104H65.5725V72.2153L66.134 72.8104ZM66.6954 52.8906V72.2144H65.5725V52.8906L66.134 52.2955L66.6954 52.8906ZM65.5725 52.8906V52.2955H66.134L65.5725 52.8906ZM63.2961 101.735H87.4194V102.926H63.2961L62.7346 102.331L63.2961 101.736V101.735ZM63.2961 102.926H62.7346V102.331L63.2961 102.926ZM62.7346 51.1342H63.8576V52.7295V54.3257V55.9228V57.5199V59.118V60.717V62.316V63.9149V65.5149V67.1148V68.7156V70.3165V71.9173V73.5182V75.119V76.7208V78.3226V79.9244V81.5261V83.1279V84.7297V86.3315V87.9333V89.5341V91.135V92.7358V94.3367V95.9366V97.5365V99.1364V100.735V102.334H62.7346V100.735V99.1364V97.5365V95.9366V94.3367V92.7358V91.135V89.5341V87.9333V86.3315V84.7297V83.1279V81.5261V79.9244V78.3226V76.7208V75.119V73.5182V71.9173V70.3165V68.7156V67.1148V65.5149V63.9149V62.316V60.717V59.118V57.5199V55.9228V54.3257V52.7295V51.1342ZM71.4549 38.5444V39.7355L72.0164 39.1405L71.9876 39.5921L71.9077 40.0363L71.7801 40.4712L71.6121 40.895L71.4073 41.3103L71.1701 41.7173L70.9051 42.1177L70.6149 42.5135L70.3032 42.9046L69.9726 43.292L69.6259 43.6767L69.2665 44.0585L68.8964 44.4384L68.5191 44.8165L68.1382 45.1928L67.7546 45.5681L67.3737 45.9406L66.9973 46.3121L66.6281 46.6828L66.2696 47.0506L65.9247 47.4166L65.5968 47.7807L65.2895 48.1421L65.0048 48.4997L64.7451 48.8536L64.5152 49.2019L64.3166 49.5446L64.1513 49.8798L64.022 50.2058L63.9294 50.5233L63.8737 50.8306L63.8549 51.1314H62.7319L62.7598 50.6779L62.8406 50.2328L62.9682 49.7969L63.1362 49.3714L63.341 48.9551L63.5782 48.5462L63.8432 48.1449L64.1325 47.7491L64.4442 47.357L64.7757 46.9687L65.1215 46.5841L65.4809 46.2013L65.851 45.8204L66.2283 45.4423L66.6092 45.0661L66.9919 44.6908L67.3728 44.3183L67.7492 43.9467L68.1184 43.577L68.4769 43.2092L68.8218 42.8432L69.1488 42.48L69.457 42.1196L69.7417 41.762L70.0005 41.409L70.2304 41.0607L70.429 40.7189L70.5943 40.3846L70.7227 40.0596L70.8153 39.7439L70.871 39.4375L70.8898 39.1386L71.4513 38.5435L71.4549 38.5444ZM70.8934 39.1395V38.5444H71.4549L70.8934 39.1395ZM79.5248 39.0883H78.4018L78.9633 39.6834H78.489L78.0613 39.6843L77.6759 39.6852L77.3319 39.6862L77.0255 39.6871L76.7533 39.689L76.5117 39.6908L76.2979 39.6927L76.1092 39.6946L75.9421 39.6964L75.7948 39.6983L75.6619 39.7011L75.5406 39.7029L75.4292 39.7057L75.3232 39.7076L75.2217 39.7104L75.1175 39.7132L75.0114 39.715L74.8974 39.7178L74.7752 39.7197L74.6404 39.7225L74.4886 39.7244L74.3188 39.7262L74.1284 39.7281L73.9128 39.7299L73.6702 39.7318L73.3962 39.7337L73.0872 39.7346L72.7422 39.7355L72.3568 39.7365L71.9283 39.7374H71.4531V38.5463H71.9274L72.355 38.5454L72.7404 38.5444L73.0845 38.5435L73.3908 38.5426L73.663 38.5407L73.9047 38.5389L74.1185 38.537L74.308 38.5351L74.4742 38.5333L74.6216 38.5314L74.7545 38.5286L74.8749 38.5267L74.9863 38.524L75.0923 38.5221L75.1938 38.5193L75.298 38.5165L75.404 38.5146L75.5172 38.5118L75.6394 38.51L75.7741 38.5072L75.926 38.5053L76.0949 38.5035L76.2853 38.5016L76.5009 38.4997L76.7435 38.4979L77.0175 38.496L77.3256 38.4951L77.6706 38.4942L78.056 38.4932L78.4845 38.4923H78.9597L79.5212 39.0874L79.5248 39.0883ZM78.9633 38.4932H79.5248V39.0883L78.9633 38.4932ZM87.98 51.0094H86.8571L86.8382 50.717L86.7807 50.4162L86.6846 50.1052L86.5516 49.783L86.3809 49.4514L86.1752 49.1115L85.9372 48.766L85.6686 48.414L85.373 48.0583L85.0541 47.6988L84.7145 47.3365L84.357 46.9724L83.9859 46.6055L83.6032 46.2367L83.2134 45.8661L82.8181 45.4945L82.421 45.121L82.0258 44.7467L81.635 44.3704L81.2523 43.9924L80.8795 43.6124L80.5201 43.2287L80.1778 42.8432L79.8553 42.4539L79.5553 42.0609L79.2804 41.6623L79.0352 41.2572L78.8222 40.8437L78.6471 40.4209L78.515 39.9879L78.4306 39.5437L78.4009 39.0911H79.5239L79.5427 39.3835L79.6002 39.6843L79.6963 39.9954L79.8293 40.3176L80 40.6491L80.2057 40.989L80.4438 41.3345L80.7124 41.6865L81.0079 42.0423L81.3268 42.4017L81.6664 42.764L82.024 43.1281L82.395 43.4951L82.7777 43.8638L83.1676 44.2345L83.5619 44.6061L83.959 44.9795L84.3543 45.3539L84.745 45.7301L85.1277 46.1082L85.5006 46.4881L85.8599 46.8718L86.2022 47.2574L86.5247 47.6466L86.8247 48.0396L87.0996 48.4382L87.3449 48.8433L87.5578 49.2568L87.733 49.6796L87.865 50.1126L87.9495 50.5569L87.9791 51.0094H87.98ZM86.8571 102.331V51.0094H87.98V102.331L87.4185 102.926L86.8571 102.331ZM87.98 102.331V102.926H87.4185L87.98 102.331ZM72.0155 22.7129V39.1395H70.8925V22.7129L71.454 22.1178L72.0155 22.7129ZM70.8925 22.7129V22.1178H71.454L70.8925 22.7129ZM78.9624 23.308H71.4531V22.1169H78.9624L79.5239 22.712L78.9624 23.307V23.308ZM78.9624 22.1169H79.5239V22.712L78.9624 22.1169ZM78.4009 39.0874V22.712H79.5239V39.0874H78.4009ZM70.7236 21.3383L71.8026 22.2454L71.1054 23.1795L70.0265 22.2724L69.8136 21.8068L70.7236 21.3383ZM70.0265 22.2724L69.8145 22.0945L69.8136 21.8068L70.0265 22.2724ZM70.9321 19.8474L70.9365 21.804L69.8136 21.8068L69.8091 19.8502L70.0535 19.3575L70.9321 19.8474ZM69.8091 19.8502L69.8082 19.5354L70.0526 19.3575L69.8082 19.8502H69.8091ZM71.7711 19.5512L70.6877 20.34L70.0535 19.3575L71.1369 18.5688L71.454 18.4645L71.7711 19.5512V19.5512ZM71.1369 18.5688L71.2797 18.4645H71.454L71.1369 18.5688ZM78.9633 19.6555H71.454V18.4645H78.9633L79.2804 18.5688L78.9633 19.6555V19.6555ZM78.9633 18.4645H79.1376L79.2804 18.5688L78.9633 18.4645ZM79.7233 20.3354L78.6453 19.5512L79.2795 18.5688L80.3575 19.3529L80.6019 19.8437L79.7233 20.3344V20.3354ZM80.3575 19.3529L80.6019 19.5308V19.8446L80.3575 19.3538V19.3529ZM79.4789 21.8049V19.8437H80.6019V21.8049L80.389 22.2715L79.4789 21.8049ZM80.6019 21.8049V22.0927L80.389 22.2715L80.6019 21.8049ZM78.6147 22.2454L79.6927 21.3383L80.3899 22.2715L79.3118 23.1785L78.6147 22.2454ZM73.0881 13.6014V19.0586H71.9652V13.6014L72.5266 13.0063L73.0881 13.6014V13.6014ZM71.9652 13.6014V13.0063H72.5266L71.9652 13.6014ZM77.8898 14.1965H72.5266V13.0054H77.8898L78.4512 13.6005L77.8898 14.1955V14.1965ZM77.8898 13.0054H78.4512V13.6005L77.8898 13.0054ZM77.3283 19.0586V13.6014H78.4512V19.0586H77.3283Z" fill="black" stroke="black"/>
<path d="M58.9204 138.995C58.2126 138.995 57.3231 138.288 56.2518 136.874C55.1806 135.46 54.1139 133.759 53.0526 131.771C51.9904 129.783 51.1262 127.96 50.4591 126.301C49.9944 127.938 49.4484 129.958 48.8211 132.361C48.4776 133.721 47.9822 135.571 47.3349 137.91C46.8088 137.91 46.3442 137.756 45.9401 137.448C45.536 137.139 45.3335 136.762 45.3335 136.316C45.3335 135.997 45.4754 135.412 45.7584 134.561C47.1125 130.139 48.3555 126.328 49.4882 123.128C50.62 119.929 51.9344 116.543 53.4305 112.97C52.6621 113.097 51.9995 113.284 51.4435 113.528C50.8876 113.772 50.2864 114.075 49.6392 114.436C49.255 114.67 49.0127 114.787 48.9115 114.787C48.7695 114.787 48.5779 114.681 48.3347 114.468C48.0925 114.255 47.9713 114.074 47.9713 113.926C50.5594 112.756 52.8339 112.171 54.7946 112.171C56.0484 112.171 57.2616 112.384 58.4341 112.809C59.6065 113.235 60.572 113.894 61.3304 114.786C62.088 115.679 62.4676 116.795 62.4676 118.135C62.4676 120.027 61.7444 121.489 60.299 122.52C58.8535 123.551 57.276 124.232 55.5684 124.562C53.8599 124.89 52.3891 125.056 51.1552 125.056C51.3577 125.438 51.5439 125.789 51.7165 126.108C51.8883 126.427 52.0447 126.713 52.1857 126.969C53.0553 128.606 53.8183 129.956 54.4764 131.019C55.1327 132.082 55.9517 133.204 56.9325 134.383C57.9125 135.563 59.0913 136.748 60.4662 137.939C60.3451 138.216 60.1272 138.461 59.8135 138.673C59.5008 138.885 59.2015 138.992 58.9195 138.992L58.9204 138.995ZM50.9436 124.548C52.541 124.441 54.0579 124.121 55.4925 123.59C56.928 123.059 58.1104 122.283 59.0415 121.262C59.9717 120.241 60.4364 118.977 60.4364 117.467C60.4364 115.851 59.9157 114.676 58.8734 113.943C57.8329 113.21 56.5438 112.843 55.007 112.843C53.7939 115.395 52.4397 119.296 50.9427 124.548H50.9436ZM63.5606 135.455C63.2776 135.455 63.0453 135.381 62.8627 135.232C62.681 135.083 62.5897 134.871 62.5897 134.594C62.5897 134.254 62.7813 133.951 63.1655 133.685C63.5497 133.419 63.9438 133.286 64.3479 133.286C64.8731 133.286 65.1362 133.542 65.1362 134.052C65.1362 134.371 64.9699 134.684 64.6363 134.992C64.3027 135.301 63.9438 135.455 63.5597 135.455H63.5606ZM70.9307 136.156C70.1018 136.156 69.4952 135.89 69.1101 135.359C68.7259 134.828 68.5343 134.126 68.5343 133.254C68.5343 132.382 68.706 131.468 69.0505 130.512C69.394 129.555 69.8387 128.757 70.3847 128.119C70.9307 127.481 71.4768 127.162 72.0228 127.162C72.2045 127.162 72.4169 127.216 72.6592 127.322C72.416 127.534 72.124 128.001 71.7796 128.725C71.4361 129.448 71.1369 130.218 70.8846 131.036C70.6315 131.855 70.5059 132.519 70.5059 133.03C70.5059 134.242 70.8693 134.848 71.5979 134.848C72.0228 134.848 72.5281 134.614 73.1148 134.146C73.7015 133.678 74.2773 133.062 74.8432 132.296C74.2773 131.807 73.8371 131.17 73.5243 130.383C73.2106 129.597 73.0542 128.778 73.0542 127.928C73.0542 126.822 73.3227 125.876 73.8579 125.089C74.3939 124.303 75.1171 123.909 76.0265 123.909C76.7949 123.909 77.3355 124.126 77.6492 124.563C77.9629 124.998 78.1192 125.599 78.1192 126.364C78.1192 127.172 77.9321 128.081 77.5579 129.091C77.1836 130.1 76.6937 131.084 76.0871 132.04C76.4514 132.253 76.8356 132.36 77.2397 132.36C77.8264 132.36 78.4329 132.174 79.0603 131.801C79.6868 131.43 80.1622 130.851 80.4859 130.064L80.8493 130.382C80.4651 131.319 79.9191 132.009 79.2113 132.455C78.5034 132.902 77.7757 133.125 77.0272 133.125C76.4812 133.125 75.9958 133.018 75.5709 132.805C74.8432 133.805 74.0703 134.613 73.2513 135.23C72.4323 135.847 71.6594 136.155 70.9317 136.155L70.9307 136.156ZM75.3883 131.468C75.9135 130.639 76.3384 129.794 76.6629 128.933C76.9856 128.071 77.1484 127.28 77.1484 126.556C77.1484 125.961 77.0625 125.514 76.8898 125.217C76.7181 124.92 76.5011 124.771 76.238 124.771C75.9551 124.771 75.6667 124.915 75.3738 125.201C75.08 125.488 74.8378 125.881 74.6461 126.381C74.4536 126.88 74.3578 127.428 74.3578 128.024C74.3578 128.683 74.4436 129.315 74.6154 129.921C74.7872 130.526 75.0457 131.043 75.3892 131.468H75.3883ZM82.4249 136.093C81.596 136.093 80.984 135.795 80.5898 135.2C80.1948 134.605 79.9986 133.807 79.9986 132.808C79.9986 130.895 80.6251 128.296 81.8798 125.011C83.1327 121.726 84.533 118.766 86.0806 116.129C87.6274 113.493 88.7438 112.174 89.4317 112.174C89.7147 112.174 89.9524 112.434 90.1441 112.955C90.3357 113.476 90.4324 114.003 90.4324 114.534C90.4324 115.512 90.0537 116.952 89.2952 118.855C88.5368 120.758 87.5415 122.688 86.3075 124.643C85.0736 126.6 83.7592 128.183 82.3653 129.395C82.1022 130.629 81.9702 131.702 81.9702 132.617C81.9702 134.254 82.415 135.072 83.3045 135.072C84.053 135.072 84.816 134.574 85.5943 133.574C86.3726 132.575 87.0651 131.373 87.6717 129.97L88.1273 130.226C86.388 134.137 84.4878 136.094 82.4258 136.094L82.4249 136.093ZM82.6374 128.312C83.7493 127.141 84.8359 125.67 85.898 123.894C86.9593 122.118 87.8235 120.418 88.4907 118.792C89.1578 117.165 89.4914 115.991 89.4914 115.268C89.4914 114.927 89.4209 114.758 89.2789 114.758C88.996 114.758 88.4147 115.486 87.5352 116.942C86.6556 118.398 85.7507 120.179 84.8205 122.285C83.8903 124.389 83.1626 126.399 82.6365 128.312H82.6374ZM92.8886 121.359C92.5252 121.359 92.2268 121.269 91.9936 121.087C91.7613 120.907 91.6447 120.646 91.6447 120.306C91.6447 119.881 91.8878 119.498 92.3724 119.159C92.8578 118.819 93.3532 118.649 93.8585 118.649C94.5257 118.649 94.8592 118.978 94.8592 119.638C94.8592 120.042 94.6522 120.43 94.2382 120.801C93.8242 121.174 93.374 121.36 92.8886 121.36V121.359ZM89.2491 135.966C88.5006 135.966 87.9248 135.716 87.5207 135.216C87.1157 134.717 86.9141 134.074 86.9141 133.286C86.9141 132.457 87.1419 131.309 87.5957 129.842C88.0504 128.375 88.6172 127.089 89.2943 125.982C89.9714 124.876 90.634 124.324 91.2804 124.324C91.463 124.324 91.6194 124.387 91.7504 124.515C91.8815 124.642 91.9484 124.813 91.9484 125.025C91.9484 125.323 91.6248 126.035 90.9775 127.162C90.3104 128.332 89.7798 129.379 89.3847 130.304C88.9906 131.228 88.7935 132.105 88.7935 132.934C88.7935 133.678 88.9101 134.183 89.1424 134.45C89.3748 134.716 89.7544 134.848 90.2797 134.848C91.8571 134.848 93.4138 133.221 94.9505 129.969L95.2236 130.288C94.6577 132.075 93.8242 133.467 92.7213 134.466C91.6194 135.465 90.4623 135.965 89.2491 135.965V135.966ZM96.4674 136.157C95.6385 136.157 95.0319 135.891 94.6468 135.36C94.2626 134.829 94.071 134.127 94.071 133.255C94.071 132.383 94.2427 131.469 94.5871 130.512C94.9307 129.556 95.3754 128.758 95.9214 128.12C96.4674 127.482 97.0134 127.163 97.5595 127.163C97.7412 127.163 97.9536 127.217 98.1959 127.323C97.9527 127.535 97.6607 128.002 97.3163 128.726C96.9728 129.449 96.6744 130.219 96.4213 131.037C96.1691 131.856 96.0426 132.52 96.0426 133.031C96.0426 134.243 96.4069 134.849 97.1346 134.849C97.5595 134.849 98.0648 134.615 98.6506 134.147C99.2372 133.679 99.8131 133.063 100.379 132.297C99.8131 131.808 99.3738 131.171 99.0601 130.384C98.7473 129.598 98.59 128.779 98.59 127.929C98.59 126.823 98.8585 125.877 99.3936 125.09C99.9297 124.303 100.652 123.91 101.562 123.91C102.331 123.91 102.871 124.127 103.185 124.563C103.498 124.999 103.655 125.6 103.655 126.365C103.655 127.173 103.468 128.082 103.094 129.092C102.719 130.101 102.229 131.085 101.623 132.041C101.986 132.254 102.37 132.361 102.775 132.361C103.362 132.361 103.969 132.175 104.595 131.802C105.222 131.431 105.697 130.851 106.021 130.065L106.384 130.383C106 131.319 105.454 132.009 104.746 132.456C104.038 132.903 103.311 133.126 102.562 133.126C102.016 133.126 101.531 133.019 101.106 132.806C100.378 133.806 99.6052 134.614 98.7862 135.231C97.9671 135.848 97.1942 136.156 96.4665 136.156L96.4674 136.157ZM100.926 131.469C101.451 130.64 101.876 129.795 102.2 128.934C102.522 128.072 102.685 127.281 102.685 126.557C102.685 125.962 102.599 125.515 102.427 125.218C102.256 124.921 102.039 124.771 101.776 124.771C101.493 124.771 101.204 124.915 100.911 125.202C100.619 125.489 100.375 125.882 100.184 126.382C99.9912 126.881 99.8953 127.429 99.8953 128.025C99.8953 128.684 99.9812 129.316 100.153 129.922C100.325 130.527 100.583 131.044 100.927 131.469H100.926Z" fill="black" stroke="black"/>
<rect x="1" y="1" width="150" height="150" stroke="black" stroke-width="2"/>
<rect x="1" y="1" width="150" height="150" stroke="black" stroke-opacity="0.2" stroke-width="2"/>
</svg>
