<svg width="44" height="97" viewBox="0 0 44 97" fill="none" xmlns="http://www.w3.org/2000/svg">
<path d="M14.6487 61.9812V49.7642H15.4561V61.9812H14.6487ZM18.8918 23.8484L19.6352 24.2031L19.5384 24.4426L19.4311 24.6764L19.3149 24.9031L19.1895 25.1241L19.0571 25.3395L18.9176 25.5498L18.7716 25.7552L18.6205 25.9564L18.4648 26.1532L18.3059 26.3465L18.1431 26.5363L17.9778 26.7232L17.8111 26.908L17.6432 27.0892L17.4753 27.269L17.3073 27.4467L17.1407 27.623L16.976 27.7978L16.8132 27.9719L16.6536 28.1453L16.498 28.318L16.3468 28.49L16.2008 28.662L16.0607 28.8333L15.9276 29.0039L15.801 29.1751L15.6822 29.3464L15.5724 29.5177L15.4716 29.689L15.3799 29.8603L15.2985 30.0322L15.2274 30.2057L14.4859 29.846L14.5763 29.6264L14.6777 29.4125L14.7888 29.2036L14.909 28.9996L15.0369 28.8006L15.1719 28.6052L15.3133 28.4133L15.4606 28.2242L15.6124 28.038L15.7687 27.8546L15.9283 27.6734L16.0904 27.4936L16.2551 27.3152L16.4211 27.1375L16.5884 26.9606L16.755 26.7843L16.9211 26.6081L17.0858 26.4311L17.2492 26.2541L17.4094 26.0772L17.567 25.8988L17.7201 25.7204L17.8686 25.5399L18.012 25.3587L18.149 25.176L18.2794 24.9919L18.4028 24.8057L18.5184 24.6181L18.6257 24.4291L18.7245 24.2372L18.8136 24.0439L18.8931 23.847L18.8918 23.8484ZM28.6111 31.8182H15.0072V30.9093H28.6111L29.0148 31.3634L28.6111 31.8175V31.8182ZM28.6111 30.9093H29.0148V31.3634L28.6111 30.9093ZM28.2074 46.1112V31.3641H29.0148V46.1112L28.6111 46.5653L28.2074 46.1112ZM29.0148 46.1112V46.5653H28.6111L29.0148 46.1112ZM15.0072 45.6571H28.6111V46.5661H15.0072L14.6035 46.1119L15.0072 45.6578V45.6571ZM15.0072 46.5661H14.6035V46.1119L15.0072 46.5661ZM15.4109 31.3641V46.1112H14.6035V31.3641L15.0072 30.91L15.4109 31.3641ZM14.6035 31.3641V30.91H15.0072L14.6035 31.3641ZM12.9667 68.6398H30.3118V69.5488H12.9667L12.563 69.0947L12.9667 68.6405V68.6398ZM12.9667 69.5488H12.563V69.0947L12.9667 69.5488ZM12.563 30.0237H13.3704V31.2411V32.4593V33.6782V34.897V36.1166V37.3369V38.5571V39.7774V40.9984V42.2194V43.4411V44.6628V45.8845V47.1062V48.3279V49.5503V50.7727V51.9951V53.2175V54.4399V55.6624V56.8848V58.1072V59.3289V60.5506V61.7723V62.994V64.215V65.436V66.6569V67.8772V69.0975H12.563V67.8772V66.6569V65.436V64.215V62.994V61.7723V60.5506V59.3289V58.1072V56.8848V55.6624V54.4399V53.2175V51.9951V50.7727V49.5503V48.3279V47.1062V45.8845V44.6628V43.4411V42.2194V40.9984V39.7774V38.5571V37.3369V36.1166V34.897V33.6782V32.4593V31.2411V30.0237ZM18.833 20.4157V21.3247L19.2367 20.8706L19.216 21.2153L19.1585 21.5543L19.0668 21.8862L18.946 22.2095L18.7988 22.5265L18.6282 22.8371L18.4377 23.1427L18.2291 23.4447L18.0049 23.7432L17.7672 24.0389L17.5179 24.3324L17.2595 24.6238L16.9934 24.9138L16.7221 25.2023L16.4482 25.4894L16.1724 25.7758L15.8985 26.0601L15.6279 26.3437L15.3624 26.6266L15.1047 26.9073L14.8567 27.1866L14.6209 27.4645L14.4 27.7402L14.1952 28.0131L14.0086 28.2832L13.8432 28.549L13.7005 28.8105L13.5816 29.0664L13.4886 29.3151L13.4221 29.5575L13.382 29.792L13.3684 30.0216H12.561L12.5811 29.6755L12.6392 29.3358L12.7309 29.0031L12.8517 28.6784L12.999 28.3607L13.1695 28.0487L13.36 27.7424L13.568 27.4403L13.7922 27.1411L14.0305 26.8447L14.2792 26.5512L14.5376 26.2591L14.8037 25.9684L15.075 25.6799L15.3489 25.3928L15.624 25.1064L15.8979 24.8221L16.1685 24.5385L16.434 24.2564L16.6917 23.9756L16.9398 23.6963L17.1749 23.4191L17.3965 23.1441L17.6012 22.8712L17.7872 22.6018L17.9526 22.336L18.0953 22.0752L18.2142 21.8201L18.3066 21.572L18.3731 21.3311L18.4131 21.0973L18.4267 20.8691L18.8304 20.415L18.833 20.4157ZM18.4293 20.8699V20.4157H18.833L18.4293 20.8699ZM24.6354 20.8308H23.828L24.2317 21.2849H23.8906L23.5832 21.2856L23.306 21.2863L23.0587 21.287L22.8384 21.2877L22.6427 21.2892L22.4689 21.2906L22.3152 21.292L22.1795 21.2934L22.0594 21.2948L21.9535 21.2963L21.8579 21.2984L21.7707 21.2998L21.6906 21.302L21.6144 21.3034L21.5414 21.3055L21.4664 21.3076L21.3902 21.3091L21.3082 21.3112L21.2203 21.3126L21.1235 21.3148L21.0143 21.3162L20.8922 21.3176L20.7553 21.319L20.6003 21.3204L20.4259 21.3219L20.2288 21.3233L20.0066 21.324L19.7586 21.3247L19.4815 21.3254L19.1734 21.3261H18.8317V20.4171H19.1728L19.4802 20.4164L19.7573 20.4157L20.0047 20.415L20.225 20.4143L20.4207 20.4129L20.5944 20.4114L20.7482 20.41L20.8845 20.4086L21.004 20.4072L21.1099 20.4058L21.2055 20.4036L21.292 20.4022L21.3721 20.4001L21.4484 20.3987L21.5214 20.3965L21.5963 20.3944L21.6725 20.393L21.7539 20.3908L21.8417 20.3894L21.9386 20.3873L22.0478 20.3859L22.1692 20.3844L22.3062 20.383L22.4612 20.3816L22.6356 20.3802L22.8326 20.3788L23.0541 20.378L23.3022 20.3773L23.5793 20.3766L23.8874 20.3759H24.2291L24.6328 20.8301L24.6354 20.8308ZM24.2317 20.3766H24.6354V20.8308L24.2317 20.3766ZM30.7148 29.9285H29.9074L29.8939 29.7053L29.8525 29.4758L29.7834 29.2384L29.6878 28.9925L29.5651 28.7395L29.4172 28.4801L29.246 28.2164L29.0529 27.9478L28.8404 27.6763L28.6111 27.4019L28.3669 27.1255L28.1098 26.8476L27.843 26.5676L27.5679 26.2861L27.2875 26.0033L27.0033 25.7197L26.7178 25.4347L26.4336 25.149L26.1527 24.8619L25.8775 24.5733L25.6094 24.2834L25.3511 23.9906L25.105 23.6963L24.8731 23.3992L24.6573 23.0993L24.4597 22.7951L24.2833 22.486L24.1303 22.1704L24.0043 21.8478L23.9093 21.5173L23.8486 21.1783L23.8273 20.8329H24.6347L24.6483 21.0561L24.6896 21.2856L24.7587 21.523L24.8543 21.7689L24.9771 22.0219L25.125 22.2813L25.2962 22.545L25.4893 22.8136L25.7018 23.0851L25.9311 23.3594L26.1753 23.6359L26.4323 23.9138L26.6991 24.1938L26.9743 24.4753L27.2546 24.7581L27.5382 25.0417L27.8237 25.3267L28.1079 25.6124L28.3889 25.8995L28.664 26.188L28.9321 26.478L29.1905 26.7708L29.4366 27.0651L29.6684 27.3621L29.8842 27.662L30.0818 27.9662L30.2582 28.2754L30.4113 28.5909L30.5372 28.9136L30.6322 29.2441L30.6929 29.5831L30.7142 29.9285H30.7148ZM29.9074 69.0947V29.9285H30.7148V69.0947L30.3111 69.5488L29.9074 69.0947ZM30.7148 69.0947V69.5488H30.3111L30.7148 69.0947ZM19.2361 8.33375V20.8699H18.4286V8.33375L18.8324 7.87961L19.2361 8.33375ZM18.4286 8.33375V7.87961H18.8324L18.4286 8.33375ZM24.231 8.78789H18.8317V7.87889H24.231L24.6347 8.33304L24.231 8.78718V8.78789ZM24.231 7.87889H24.6347V8.33304L24.231 7.87889ZM23.8273 20.8301V8.33304H24.6347V20.8301H23.8273ZM18.3072 7.28475L19.083 7.97697L18.5817 8.68981L17.806 7.99758L17.6529 7.64223L18.3072 7.28475ZM17.806 7.99758L17.6535 7.86184L17.6529 7.64223L17.806 7.99758ZM18.4571 6.14691L18.4603 7.6401L17.6529 7.64223L17.6497 6.14904L17.8253 5.77308L18.4571 6.14691ZM17.6497 6.14904L17.649 5.90882L17.8247 5.77308L17.649 6.14904H17.6497ZM19.0604 5.92091L18.2814 6.52287L17.8253 5.77308L18.6043 5.17111L18.8324 5.09152L19.0604 5.92091ZM18.6043 5.17111L18.707 5.09152H18.8324L18.6043 5.17111ZM24.2317 6.00051H18.8324V5.09152H24.2317L24.4597 5.17111L24.2317 6.00051ZM24.2317 5.09152H24.357L24.4597 5.17111L24.2317 5.09152ZM24.7781 6.51932L24.003 5.92091L24.459 5.17111L25.2341 5.76953L25.4098 6.14407L24.7781 6.51861V6.51932ZM25.2341 5.76953L25.4098 5.90527V6.14478L25.2341 5.77024V5.76953ZM24.6024 7.64081V6.14407H25.4098V7.64081L25.2568 7.99687L24.6024 7.64081ZM25.4098 7.64081V7.86042L25.2568 7.99687L25.4098 7.64081ZM23.981 7.97697L24.7562 7.28475L25.2574 7.99687L24.4823 8.6891L23.981 7.97697ZM20.0073 1.38022V5.54494H19.1999V1.38022L19.6036 0.92608L20.0073 1.38022ZM19.1999 1.38022V0.92608H19.6036L19.1999 1.38022ZM23.4598 1.83436H19.6036V0.925369H23.4598L23.8635 1.37951L23.4598 1.83365V1.83436ZM23.4598 0.925369H23.8635V1.37951L23.4598 0.925369ZM23.0561 5.54494V1.38022H23.8635V5.54494H23.0561Z" fill="white"/>
<path d="M9.82099 96.843C9.31205 96.843 8.67247 96.3036 7.90224 95.2243C7.13201 94.1456 6.36504 92.8472 5.60196 91.3299C4.83823 89.8125 4.21684 88.4213 3.73716 87.1555C3.40307 88.405 3.01048 89.9464 2.55939 91.7799C2.3124 92.8182 1.95621 94.2299 1.49082 96.0152C1.11253 96.0152 0.778438 95.8975 0.487896 95.6623C0.197354 95.427 0.0517578 95.1392 0.0517578 94.7983C0.0517578 94.5552 0.153805 94.1087 0.357249 93.4596C1.33092 90.0847 2.22465 87.1761 3.03908 84.7338C3.85285 82.2923 4.79793 79.7083 5.87365 76.9819C5.32116 77.079 4.84473 77.2214 4.44499 77.4078C4.04525 77.5942 3.61301 77.8253 3.14762 78.101C2.87138 78.2795 2.69719 78.3688 2.62439 78.3688C2.52234 78.3688 2.38454 78.2873 2.2097 78.125C2.0355 77.9628 1.94841 77.8246 1.94841 77.7112C3.8093 76.8189 5.44466 76.3724 6.85447 76.3724C7.756 76.3724 8.62827 76.5347 9.4713 76.8593C10.3143 77.1839 11.0085 77.6871 11.5538 78.3681C12.0985 79.0492 12.3715 79.9011 12.3715 80.9238C12.3715 82.3674 11.8515 83.4829 10.8122 84.2703C9.77289 85.057 8.63867 85.5765 7.41086 85.8281C6.18239 86.079 5.12487 86.2051 4.23764 86.2051C4.38324 86.4971 4.51714 86.765 4.64128 87.0081C4.76478 87.2519 4.87723 87.4702 4.97862 87.6651C5.60391 88.9146 6.15249 89.945 6.62568 90.7558C7.09756 91.5673 7.68645 92.4234 8.39168 93.3235C9.09626 94.2236 9.94384 95.1286 10.9325 96.0372C10.8454 96.2484 10.6887 96.4355 10.4632 96.5971C10.2383 96.7594 10.0231 96.8409 9.82034 96.8409L9.82099 96.843ZM4.08555 85.8175C5.23407 85.736 6.32474 85.4922 7.35626 85.0868C8.38843 84.6814 9.23861 84.0889 9.90809 83.31C10.5769 82.5304 10.911 81.5659 10.911 80.4135C10.911 79.1803 10.5366 78.2838 9.78719 77.7246C9.03906 77.1647 8.11219 76.8848 7.00722 76.8848C6.13494 78.8323 5.16127 81.8097 4.0849 85.8175H4.08555ZM13.1573 94.1413C12.9539 94.1413 12.7869 94.0846 12.6556 93.9713C12.5249 93.8579 12.4593 93.6956 12.4593 93.4844C12.4593 93.225 12.5971 92.9939 12.8733 92.7905C13.1495 92.5878 13.4329 92.4865 13.7235 92.4865C14.1011 92.4865 14.2903 92.6814 14.2903 93.0705C14.2903 93.3143 14.1707 93.5531 13.9308 93.7884C13.691 94.0237 13.4329 94.1413 13.1567 94.1413H13.1573ZM18.4567 94.6764C17.8606 94.6764 17.4245 94.4737 17.1476 94.0683C16.8713 93.663 16.7336 93.1272 16.7336 92.4617C16.7336 91.7962 16.857 91.0988 17.1047 90.3688C17.3517 89.6389 17.6715 89.0301 18.0641 88.5432C18.4567 88.0563 18.8492 87.8125 19.2418 87.8125C19.3725 87.8125 19.5252 87.8536 19.6994 87.9344C19.5246 88.0967 19.3146 88.4532 19.067 89.0053C18.82 89.5574 18.6048 90.1449 18.4235 90.7693C18.2415 91.3944 18.1512 91.9011 18.1512 92.2909C18.1512 93.2158 18.4125 93.6786 18.9363 93.6786C19.2418 93.6786 19.6052 93.5 20.027 93.1428C20.4489 92.7856 20.8629 92.315 21.2698 91.731C20.8629 91.3575 20.5463 90.8713 20.3215 90.271C20.0959 89.6708 19.9835 89.0457 19.9835 88.3972C19.9835 87.5531 20.1765 86.8309 20.5613 86.2306C20.9467 85.6304 21.4667 85.3299 22.1206 85.3299C22.6731 85.3299 23.0618 85.4957 23.2873 85.8288C23.5129 86.1612 23.6253 86.6197 23.6253 87.2037C23.6253 87.8203 23.4908 88.5141 23.2217 89.2845C22.9526 90.0549 22.6003 90.8054 22.1642 91.5354C22.4261 91.6977 22.7023 91.7792 22.9929 91.7792C23.4147 91.7792 23.8509 91.6375 24.3019 91.3533C24.7524 91.0698 25.0943 90.6275 25.327 90.0272L25.5883 90.2703C25.312 90.9847 24.9194 91.5113 24.4105 91.8522C23.9016 92.1931 23.3783 92.3632 22.8401 92.3632C22.4475 92.3632 22.0985 92.2817 21.793 92.1194C21.2698 92.882 20.714 93.4992 20.1252 93.9698C19.5363 94.4404 18.9805 94.6757 18.4573 94.6757L18.4567 94.6764ZM21.6617 91.0988C22.0394 90.4659 22.3448 89.821 22.5782 89.164C22.8102 88.5063 22.9272 87.9025 22.9272 87.3504C22.9272 86.8961 22.8655 86.5552 22.7413 86.3284C22.6178 86.1017 22.4618 85.9876 22.2727 85.9876C22.0693 85.9876 21.8619 86.0974 21.6513 86.3164C21.4401 86.5354 21.2659 86.8352 21.1281 87.2165C20.9896 87.5978 20.9207 88.0159 20.9207 88.4702C20.9207 88.9734 20.9825 89.456 21.106 89.9181C21.2295 90.3802 21.4154 90.7742 21.6624 91.0988H21.6617ZM26.7212 94.6282C26.1251 94.6282 25.6851 94.4007 25.4017 93.9472C25.1177 93.4929 24.9766 92.8841 24.9766 92.1215C24.9766 90.6615 25.4271 88.6778 26.3292 86.1711C27.2301 83.6644 28.2369 81.405 29.3497 79.3929C30.4618 77.3809 31.2646 76.3745 31.7592 76.3745C31.9626 76.3745 32.1336 76.573 32.2714 76.9705C32.4092 77.3681 32.4787 77.77 32.4787 78.1754C32.4787 78.9216 32.2064 80.0209 31.661 81.473C31.1157 82.9252 30.4001 84.3979 29.5129 85.8905C28.6256 87.3837 27.6806 88.5921 26.6783 89.517C26.4891 90.4581 26.3942 91.2774 26.3942 91.9755C26.3942 93.225 26.714 93.8494 27.3536 93.8494C27.8918 93.8494 28.4404 93.4688 29 92.7062C29.5597 91.9436 30.0575 91.0265 30.4937 89.9557L30.8213 90.1506C29.5707 93.1357 28.2044 94.6289 26.7218 94.6289L26.7212 94.6282ZM26.8739 88.6899C27.6734 87.7969 28.4547 86.6736 29.2184 85.3185C29.9815 83.9635 30.6029 82.6658 31.0826 81.4248C31.5622 80.1832 31.8021 79.2873 31.8021 78.7353C31.8021 78.4752 31.7514 78.3462 31.6493 78.3462C31.4459 78.3462 31.028 78.9018 30.3955 80.0131C29.7631 81.1243 29.1125 82.4837 28.4436 84.0903C27.7748 85.6963 27.2516 87.2299 26.8733 88.6899H26.8739ZM34.2447 83.3837C33.9834 83.3837 33.7689 83.315 33.6012 83.1768C33.4342 83.0393 33.3503 82.8401 33.3503 82.5808C33.3503 82.2562 33.5252 81.9635 33.8736 81.7048C34.2226 81.4454 34.5788 81.3157 34.9422 81.3157C35.4218 81.3157 35.6617 81.5673 35.6617 82.0705C35.6617 82.3788 35.5128 82.675 35.2151 82.9585C34.9174 83.2427 34.5938 83.3844 34.2447 83.3844V83.3837ZM31.6279 94.5311C31.0897 94.5311 30.6757 94.3405 30.3851 93.9592C30.0939 93.5779 29.949 93.0875 29.949 92.4865C29.949 91.8536 30.1128 90.9776 30.4391 89.8579C30.766 88.7381 31.1736 87.7565 31.6604 86.9124C32.1472 86.0683 32.6237 85.6467 33.0884 85.6467C33.2197 85.6467 33.3321 85.6949 33.4264 85.7927C33.5206 85.8897 33.5687 86.0202 33.5687 86.1817C33.5687 86.4092 33.336 86.9528 32.8707 87.8125C32.391 88.7055 32.0094 89.5042 31.7254 90.2101C31.442 90.916 31.3003 91.585 31.3003 92.2179C31.3003 92.7856 31.3841 93.1711 31.5512 93.3745C31.7182 93.5772 31.9912 93.6786 32.3689 93.6786C33.5031 93.6786 34.6224 92.4369 35.7273 89.9549L35.9236 90.198C35.5167 91.5616 34.9175 92.624 34.1245 93.3866C33.3321 94.1491 32.5002 94.5304 31.6279 94.5304V94.5311ZM36.818 94.6771C36.222 94.6771 35.7858 94.4744 35.5089 94.0691C35.2327 93.6637 35.0949 93.1279 35.0949 92.4624C35.0949 91.7969 35.2184 91.0995 35.466 90.3696C35.713 89.6396 36.0328 89.0308 36.4254 88.5439C36.818 88.057 37.2106 87.8132 37.6032 87.8132C37.7338 87.8132 37.8866 87.8543 38.0608 87.9351C37.8859 88.0974 37.676 88.4539 37.4283 89.006C37.1813 89.5581 36.9668 90.1456 36.7849 90.77C36.6035 91.3951 36.5125 91.9018 36.5125 92.2916C36.5125 93.2165 36.7745 93.6793 37.2977 93.6793C37.6032 93.6793 37.9665 93.5007 38.3877 93.1435C38.8095 92.7863 39.2236 92.3157 39.6305 91.7317C39.2236 91.3582 38.9077 90.872 38.6822 90.2718C38.4573 89.6715 38.3442 89.0464 38.3442 88.3979C38.3442 87.5538 38.5372 86.8316 38.922 86.2314C39.3074 85.6311 39.8268 85.3306 40.4813 85.3306C41.0338 85.3306 41.4225 85.4964 41.648 85.8295C41.8729 86.1619 41.986 86.6204 41.986 87.2044C41.986 87.821 41.8515 88.5148 41.5824 89.2852C41.3133 90.0556 40.961 90.8061 40.5248 91.5361C40.7861 91.6984 41.0624 91.7799 41.3536 91.7799C41.7754 91.7799 42.2116 91.6382 42.662 91.354C43.1124 91.0705 43.4543 90.6282 43.687 90.028L43.9483 90.271C43.6721 90.9854 43.2795 91.512 42.7705 91.8529C42.2616 92.1938 41.7384 92.3639 41.2002 92.3639C40.8076 92.3639 40.4585 92.2824 40.1531 92.1201C39.6298 92.8827 39.0741 93.5 38.4852 93.9705C37.8963 94.4411 37.3406 94.6764 36.8174 94.6764L36.818 94.6771ZM40.0237 91.0995C40.4013 90.4666 40.7068 89.8217 40.9395 89.1647C41.1716 88.507 41.2886 87.9032 41.2886 87.3511C41.2886 86.8968 41.2268 86.5559 41.1033 86.3292C40.9798 86.1024 40.8238 85.9883 40.6347 85.9883C40.4313 85.9883 40.2239 86.0981 40.0133 86.3171C39.8027 86.5361 39.6279 86.8359 39.4901 87.2172C39.3516 87.5985 39.2827 88.0166 39.2827 88.4709C39.2827 88.9741 39.3445 89.4567 39.468 89.9188C39.5915 90.3809 39.7774 90.7749 40.0244 91.0995H40.0237Z" fill="white"/>
</svg>
