<svg width="51" height="110" viewBox="0 0 51 110" fill="none" xmlns="http://www.w3.org/2000/svg">
<path d="M17.1068 69.7718V55.8697H18.0287V69.7718H17.1068ZM21.9515 26.3793L22.8004 26.7828L22.6898 27.0554L22.5674 27.3214L22.4346 27.5794L22.2915 27.8309L22.1403 28.076L21.981 28.3154L21.8144 28.5491L21.6418 28.778L21.464 29.002L21.2826 29.222L21.0967 29.4379L20.9079 29.6506L20.7177 29.8609L20.5259 30.0671L20.3342 30.2717L20.1424 30.4739L19.9521 30.6744L19.7641 30.8734L19.5782 31.0715L19.396 31.2689L19.2183 31.4654L19.0457 31.6611L18.879 31.8568L18.719 32.0517L18.5671 32.2458L18.4225 32.4407L18.2868 32.6356L18.1614 32.8305L18.0464 33.0254L17.9417 33.2203L17.8487 33.416L17.7676 33.6134L16.9209 33.2042L17.0242 32.9543L17.14 32.7108L17.2668 32.4731L17.404 32.241L17.55 32.0145L17.7042 31.7921L17.8657 31.5738L18.0338 31.3586L18.2072 31.1467L18.3856 30.9381L18.5678 30.7319L18.7529 30.5273L18.941 30.3243L19.1305 30.1221L19.3216 29.9207L19.5118 29.7201L19.7014 29.5196L19.8894 29.3182L20.076 29.1168L20.2589 28.9155L20.4389 28.7125L20.6137 28.5095L20.7833 28.3041L20.947 28.0978L21.1034 27.89L21.2524 27.6805L21.3932 27.4686L21.5252 27.2551L21.6477 27.04L21.7605 26.8216L21.8623 26.6017L21.953 26.3777L21.9515 26.3793ZM33.0489 35.4484H17.5161V34.414H33.0489L33.5099 34.9308L33.0489 35.4476V35.4484ZM33.0489 34.414H33.5099V34.9308L33.0489 34.414ZM32.588 51.7128V34.9316H33.5099V51.7128L33.0489 52.2296L32.588 51.7128ZM33.5099 51.7128V52.2296H33.0489L33.5099 51.7128ZM17.5161 51.196H33.0489V52.2304H17.5161L17.0552 51.7136L17.5161 51.1968V51.196ZM17.5161 52.2304H17.0552V51.7136L17.5161 52.2304ZM17.9771 34.9316V51.7128H17.0552V34.9316L17.5161 34.4148L17.9771 34.9316ZM17.0552 34.9316V34.4148H17.5161L17.0552 34.9316ZM15.1863 77.3488H34.9908V78.3832H15.1863L14.7254 77.8664L15.1863 77.3496V77.3488ZM15.1863 78.3832H14.7254V77.8664L15.1863 78.3832ZM14.7254 33.4063H15.6473V34.7917V36.1779V37.5648V38.9518V40.3396V41.7282V43.1168V44.5054V45.8948V47.2842V48.6744V50.0646V51.4548V52.845V54.2352V55.6262V57.0173V58.4083V59.7993V61.1903V62.5813V63.9724V65.3634V66.7536V68.1438V69.534V70.9242V72.3136V73.703V75.0924V76.481V77.8696H14.7254V76.481V75.0924V73.703V72.3136V70.9242V69.534V68.1438V66.7536V65.3634V63.9724V62.5813V61.1903V59.7993V58.4083V57.0173V55.6262V54.2352V52.845V51.4548V50.0646V48.6744V47.2842V45.8948V44.5054V43.1168V41.7282V40.3396V38.9518V37.5648V36.1779V34.7917V33.4063ZM21.8844 22.4731V23.5075L22.3454 22.9907L22.3218 23.3829L22.2561 23.7687L22.1514 24.1464L22.0135 24.5143L21.8453 24.875L21.6506 25.2284L21.4331 25.5762L21.1948 25.9199L20.9389 26.2596L20.6675 26.596L20.3828 26.93L20.0878 27.2616L19.784 27.5916L19.4742 27.9199L19.1615 28.2466L18.8466 28.5726L18.5339 28.896L18.2249 29.2187L17.9217 29.5406L17.6275 29.8601L17.3443 30.1779L17.0751 30.4941L16.8228 30.8079L16.5891 31.1184L16.3759 31.4258L16.1871 31.7282L16.0241 32.0258L15.8884 32.317L15.7822 32.6L15.7063 32.8758L15.6605 33.1427L15.645 33.4039H14.7231L14.746 33.0101L14.8124 32.6235L14.9171 32.245L15.055 31.8754L15.2232 31.5139L15.4179 31.1589L15.6355 30.8103L15.8729 30.4666L16.1288 30.1261L16.401 29.7889L16.6849 29.4549L16.9799 29.1225L17.2838 28.7917L17.5936 28.4634L17.9063 28.1366L18.2204 27.8107L18.5331 27.4872L18.8422 27.1645L19.1453 26.8435L19.4396 26.524L19.7228 26.2062L19.9912 25.8908L20.2442 25.5778L20.478 25.2673L20.6904 24.9608L20.8792 24.6583L21.0422 24.3615L21.1779 24.0711L21.2833 23.7889L21.3593 23.5147L21.405 23.2487L21.4205 22.9891L21.8815 22.4723L21.8844 22.4731ZM21.4235 22.9899V22.4731H21.8844L21.4235 22.9899ZM28.5095 22.9454H27.5876L28.0486 23.4622H27.6592L27.3081 23.463L26.9917 23.4638L26.7092 23.4646L26.4577 23.4654L26.2343 23.467L26.0359 23.4686L25.8604 23.4703L25.7055 23.4719L25.5683 23.4735L25.4473 23.4751L25.3382 23.4775L25.2386 23.4792L25.1472 23.4816L25.0602 23.4832L24.9768 23.4856L24.8913 23.4881L24.8042 23.4897L24.7106 23.4921L24.6103 23.4937L24.4996 23.4961L24.375 23.4978L24.2356 23.4994L24.0793 23.501L23.9023 23.5026L23.7031 23.5042L23.4782 23.5058L23.2245 23.5067L22.9413 23.5075L22.6249 23.5083L22.2731 23.5091H21.8829V22.4747H22.2723L22.6234 22.4739L22.9398 22.4731L23.2223 22.4723L23.4738 22.4715L23.6972 22.4699L23.8956 22.4682L24.0711 22.4666L24.2268 22.465L24.3632 22.4634L24.4842 22.4618L24.5933 22.4593L24.6921 22.4577L24.7836 22.4553L24.8706 22.4537L24.954 22.4513L25.0395 22.4488L25.1265 22.4472L25.2195 22.4448L25.3198 22.4432L25.4304 22.4407L25.555 22.4391L25.6937 22.4375L25.85 22.4359L26.027 22.4343L26.2262 22.4327L26.4511 22.431L26.7041 22.4302L26.9873 22.4294L27.3037 22.4286L27.6555 22.4278H28.0456L28.5066 22.9446L28.5095 22.9454ZM28.0486 22.4286H28.5095V22.9454L28.0486 22.4286ZM35.451 33.298H34.5291L34.5136 33.044L34.4664 32.7828L34.3875 32.5127L34.2784 32.2329L34.1382 31.945L33.9693 31.6498L33.7739 31.3497L33.5534 31.044L33.3107 30.7351L33.0489 30.4229L32.7701 30.1083L32.4766 29.7921L32.172 29.4735L31.8578 29.1532L31.5378 28.8313L31.2132 28.5087L30.8873 28.1844L30.5628 27.8592L30.2419 27.5325L29.9278 27.2042L29.6217 26.8742L29.3267 26.541L29.0457 26.2062L28.7809 25.8682L28.5346 25.5269L28.3089 25.1807L28.1076 24.8289L27.9328 24.4699L27.789 24.1027L27.6805 23.7266L27.6112 23.3409L27.5869 22.9478H28.5088L28.5243 23.2018L28.5715 23.463L28.6504 23.7331L28.7595 24.0129L28.8997 24.3008L29.0685 24.596L29.264 24.8961L29.4845 25.2018L29.7271 25.5107L29.989 25.8229L30.2677 26.1375L30.5613 26.4537L30.8659 26.7723L31.1801 27.0926L31.5001 27.4144L31.8239 27.7371L32.1499 28.0614L32.4744 28.3865L32.7952 28.7133L33.1094 29.0416L33.4155 29.3716L33.7105 29.7048L33.9915 30.0396L34.2562 30.3776L34.5026 30.7189L34.7282 31.0651L34.9296 31.4169L35.1044 31.7759L35.2482 32.1431L35.3566 32.5192L35.4259 32.9049L35.4503 33.298H35.451ZM34.5291 77.8664V33.298H35.451V77.8664L34.9901 78.3832L34.5291 77.8664ZM35.451 77.8664V78.3832H34.9901L35.451 77.8664ZM22.3446 8.72465V22.9899H21.4227V8.72465L21.8837 8.20787L22.3446 8.72465ZM21.4227 8.72465V8.20787H21.8837L21.4227 8.72465ZM28.0478 9.24143H21.8829V8.20707H28.0478L28.5088 8.72385L28.0478 9.24063V9.24143ZM28.0478 8.20707H28.5088V8.72385L28.0478 8.20707ZM27.5869 22.9446V8.72385H28.5088V22.9446H27.5869ZM21.2841 7.53097L22.1698 8.31867L21.5975 9.12983L20.7118 8.34212L20.537 7.93776L21.2841 7.53097ZM20.7118 8.34212L20.5377 8.18766L20.537 7.93776L20.7118 8.34212ZM21.4552 6.23619L21.4589 7.93533L20.537 7.93776L20.5333 6.23861L20.7339 5.81079L21.4552 6.23619ZM20.5333 6.23861L20.5326 5.96526L20.7332 5.81079L20.5326 6.23861H20.5333ZM22.144 5.97901L21.2546 6.66401L20.7339 5.81079L21.6233 5.1258L21.8837 5.03522L22.144 5.97901ZM21.6233 5.1258L21.7406 5.03522H21.8837L21.6233 5.1258ZM28.0486 6.06959H21.8837V5.03522H28.0486L28.3089 5.1258L28.0486 6.06959ZM28.0486 5.03522H28.1916L28.3089 5.1258L28.0486 5.03522ZM28.6725 6.65996L27.7875 5.97901L28.3082 5.1258L29.1932 5.80675L29.3938 6.23295L28.6725 6.65915V6.65996ZM29.1932 5.80675L29.3938 5.96122V6.23376L29.1932 5.80756V5.80675ZM28.4719 7.93614V6.23295H29.3938V7.93614L29.219 8.34132L28.4719 7.93614ZM29.3938 7.93614V8.18604L29.219 8.34132L29.3938 7.93614ZM27.7624 8.31867L28.6474 7.53097L29.2197 8.34132L28.3347 9.12902L27.7624 8.31867ZM23.2252 0.812022V5.55119H22.3033V0.812022L22.7643 0.295242L23.2252 0.812022ZM22.3033 0.812022V0.295242H22.7643L22.3033 0.812022ZM27.1672 1.3288H22.7643V0.294434H27.1672L27.6282 0.811213L27.1672 1.32799V1.3288ZM27.1672 0.294434H27.6282V0.811213L27.1672 0.294434ZM26.7063 5.55119V0.812022H27.6282V5.55119H26.7063Z" fill="white"/>
<path d="M11.5944 109.442C11.0133 109.442 10.283 108.828 9.40356 107.6C8.52412 106.373 7.64839 104.895 6.77711 103.169C5.90509 101.442 5.1956 99.8588 4.6479 98.4184C4.26644 99.8402 3.81818 101.594 3.30313 103.681C3.02112 104.862 2.61442 106.469 2.08305 108.5C1.65112 108.5 1.26966 108.366 0.93792 108.098C0.606182 107.831 0.439941 107.503 0.439941 107.115C0.439941 106.839 0.556458 106.331 0.788749 105.592C1.90048 101.752 2.92093 98.4418 3.85083 95.6627C4.78 92.8844 5.85908 89.944 7.08732 86.8415C6.4565 86.952 5.91251 87.1141 5.45609 87.3262C4.99967 87.5383 4.50615 87.8012 3.97477 88.1149C3.65936 88.3182 3.46047 88.4198 3.37735 88.4198C3.26083 88.4198 3.1035 88.327 2.90386 88.1424C2.70496 87.9577 2.60552 87.8004 2.60552 87.6714C4.73028 86.656 6.59751 86.1479 8.20722 86.1479C9.23657 86.1479 10.2325 86.3326 11.1951 86.702C12.1577 87.0714 12.9503 87.6439 13.5729 88.419C14.1948 89.194 14.5065 90.1634 14.5065 91.3271C14.5065 92.9699 13.9128 94.2393 12.7261 95.1353C11.5394 96.0304 10.2444 96.6216 8.84249 96.9079C7.43984 97.1934 6.23237 97.3369 5.21935 97.3369C5.38559 97.6692 5.53847 97.974 5.68022 98.2507C5.82123 98.5281 5.94962 98.7765 6.06539 98.9983C6.77934 100.42 7.4057 101.593 7.94598 102.515C8.48478 103.439 9.15716 104.413 9.96239 105.437C10.7669 106.461 11.7346 107.491 12.8634 108.525C12.764 108.765 12.5851 108.978 12.3276 109.162C12.0708 109.347 11.8252 109.44 11.5936 109.44L11.5944 109.442ZM5.04569 96.8958C6.35706 96.803 7.60237 96.5256 8.78016 96.0643C9.95868 95.603 10.9294 94.9288 11.6938 94.0425C12.4575 93.1554 12.8389 92.0578 12.8389 90.7464C12.8389 89.3432 12.4115 88.323 11.5558 87.6867C10.7016 87.0496 9.64327 86.731 8.38162 86.731C7.38567 88.9472 6.27393 92.3352 5.04494 96.8958H5.04569ZM15.4038 106.368C15.1715 106.368 14.9808 106.303 14.8309 106.174C14.6817 106.045 14.6067 105.861 14.6067 105.62C14.6067 105.325 14.7641 105.062 15.0795 104.831C15.3949 104.6 15.7185 104.485 16.0502 104.485C16.4814 104.485 16.6973 104.706 16.6973 105.149C16.6973 105.427 16.5608 105.698 16.2869 105.966C16.0131 106.234 15.7185 106.368 15.403 106.368H15.4038ZM21.4545 106.977C20.7739 106.977 20.276 106.746 19.9598 106.285C19.6444 105.823 19.4871 105.214 19.4871 104.456C19.4871 103.699 19.6281 102.906 19.9108 102.075C20.1928 101.244 20.558 100.552 21.0062 99.9975C21.4545 99.4434 21.9027 99.166 22.351 99.166C22.5002 99.166 22.6746 99.2128 22.8735 99.3047C22.6738 99.4894 22.4341 99.8951 22.1514 100.523C21.8693 101.152 21.6237 101.82 21.4166 102.531C21.2088 103.242 21.1057 103.819 21.1057 104.262C21.1057 105.315 21.404 105.841 22.0022 105.841C22.351 105.841 22.7659 105.638 23.2475 105.231C23.7292 104.825 24.2019 104.29 24.6665 103.625C24.2019 103.2 23.8405 102.647 23.5837 101.964C23.3262 101.281 23.1978 100.569 23.1978 99.8313C23.1978 98.8708 23.4182 98.049 23.8576 97.366C24.2976 96.6829 24.8914 96.3409 25.638 96.3409C26.2688 96.3409 26.7126 96.5296 26.9701 96.9087C27.2276 97.2869 27.356 97.8087 27.356 98.4732C27.356 99.1749 27.2024 99.9644 26.8951 100.841C26.5879 101.718 26.1857 102.572 25.6877 103.402C25.9868 103.587 26.3022 103.68 26.6339 103.68C27.1156 103.68 27.6135 103.519 28.1286 103.195C28.6429 102.873 29.0333 102.369 29.299 101.686L29.5973 101.963C29.2819 102.776 28.8336 103.375 28.2525 103.763C27.6714 104.151 27.074 104.344 26.4595 104.344C26.0113 104.344 25.6127 104.252 25.2639 104.067C24.6665 104.935 24.032 105.637 23.3596 106.173C22.6872 106.708 22.0527 106.976 21.4552 106.976L21.4545 106.977ZM25.114 102.906C25.5452 102.185 25.894 101.452 26.1604 100.704C26.4254 99.9555 26.559 99.2684 26.559 98.6402C26.559 98.1232 26.4884 97.7353 26.3467 97.4773C26.2057 97.2192 26.0276 97.0893 25.8116 97.0893C25.5793 97.0893 25.3426 97.2143 25.1021 97.4635C24.8609 97.7127 24.662 98.0539 24.5047 98.4878C24.3466 98.9216 24.268 99.3975 24.268 99.9144C24.268 100.487 24.3385 101.036 24.4795 101.562C24.6205 102.088 24.8327 102.536 25.1147 102.906H25.114ZM30.8909 106.922C30.2103 106.922 29.7079 106.663 29.3843 106.147C29.06 105.63 28.8989 104.937 28.8989 104.069C28.8989 102.408 29.4132 100.151 30.4433 97.2982C31.4719 94.4457 32.6215 91.8747 33.8921 89.5851C35.1619 87.2956 36.0784 86.1504 36.6432 86.1504C36.8755 86.1504 37.0707 86.3762 37.228 86.8286C37.3853 87.281 37.4648 87.7383 37.4648 88.1996C37.4648 89.0488 37.1538 90.2997 36.5311 91.9521C35.9085 93.6046 35.0914 95.2804 34.0784 96.9789C33.0653 98.6781 31.9863 100.053 30.8419 101.106C30.6259 102.177 30.5175 103.109 30.5175 103.903C30.5175 105.325 30.8827 106.036 31.613 106.036C32.2275 106.036 32.8538 105.602 33.4928 104.735C34.1318 103.867 34.7003 102.823 35.1983 101.605L35.5723 101.827C34.1444 105.223 32.5844 106.923 30.8916 106.923L30.8909 106.922ZM31.0653 100.164C31.9781 99.1483 32.8701 97.87 33.7422 96.328C34.6134 94.7861 35.3229 93.3094 35.8706 91.8973C36.4183 90.4843 36.6922 89.465 36.6922 88.8367C36.6922 88.5407 36.6343 88.394 36.5178 88.394C36.2855 88.394 35.8083 89.0262 35.0862 90.2908C34.3641 91.5553 33.6212 93.1021 32.8575 94.9304C32.0939 96.7579 31.4964 98.5031 31.0645 100.164H31.0653ZM39.4812 94.1264C39.1828 94.1264 38.9379 94.0481 38.7464 93.8909C38.5557 93.7344 38.46 93.5078 38.46 93.2126C38.46 92.8433 38.6596 92.5102 39.0574 92.2158C39.4559 91.9207 39.8626 91.7731 40.2775 91.7731C40.8252 91.7731 41.099 92.0594 41.099 92.632C41.099 92.9828 40.9291 93.3199 40.5892 93.6425C40.2493 93.9659 39.8797 94.1272 39.4812 94.1272V94.1264ZM36.4933 106.811C35.8788 106.811 35.4061 106.594 35.0743 106.161C34.7418 105.727 34.5763 105.169 34.5763 104.485C34.5763 103.765 34.7634 102.768 35.1359 101.493C35.5092 100.219 35.9745 99.1023 36.5304 98.1418C37.0863 97.1813 37.6303 96.7014 38.1609 96.7014C38.3108 96.7014 38.4392 96.7563 38.5468 96.8676C38.6544 96.978 38.7093 97.1264 38.7093 97.3103C38.7093 97.5692 38.4436 98.1878 37.9123 99.166C37.3646 100.182 36.9289 101.091 36.6046 101.894C36.281 102.698 36.1193 103.459 36.1193 104.179C36.1193 104.825 36.215 105.264 36.4057 105.495C36.5965 105.726 36.9082 105.841 37.3393 105.841C38.6344 105.841 39.9123 104.428 41.174 101.604L41.3981 101.881C40.9335 103.432 40.2493 104.641 39.3439 105.509C38.4392 106.377 37.4893 106.811 36.4933 106.811V106.811ZM42.4193 106.977C41.7388 106.977 41.2408 106.747 40.9246 106.286C40.6092 105.824 40.4519 105.215 40.4519 104.457C40.4519 103.7 40.5929 102.906 40.8757 102.076C41.1577 101.245 41.5228 100.552 41.9711 99.9983C42.4193 99.4442 42.8676 99.1668 43.3158 99.1668C43.465 99.1668 43.6394 99.2136 43.8383 99.3055C43.6387 99.4902 43.3989 99.8959 43.1162 100.524C42.8342 101.152 42.5893 101.821 42.3815 102.531C42.1744 103.243 42.0705 103.819 42.0705 104.263C42.0705 105.315 42.3696 105.842 42.967 105.842C43.3158 105.842 43.7307 105.639 44.2116 105.232C44.6932 104.826 45.166 104.29 45.6306 103.626C45.166 103.201 44.8053 102.648 44.5478 101.964C44.291 101.281 44.1619 100.57 44.1619 99.8321C44.1619 98.8716 44.3823 98.0499 44.8216 97.3668C45.2617 96.6837 45.8547 96.3417 46.602 96.3417C47.2329 96.3417 47.6767 96.5305 47.9342 96.9095C48.191 97.2877 48.3201 97.8095 48.3201 98.4741C48.3201 99.1757 48.1665 99.9652 47.8592 100.842C47.552 101.718 47.1497 102.573 46.6518 103.403C46.9501 103.588 47.2655 103.681 47.598 103.681C48.0796 103.681 48.5776 103.519 49.0919 103.196C49.6062 102.873 49.9966 102.37 50.2623 101.687L50.5606 101.964C50.2452 102.777 49.797 103.376 49.2159 103.764C48.6348 104.152 48.0373 104.345 47.4228 104.345C46.9746 104.345 46.5761 104.252 46.2273 104.068C45.6298 104.935 44.9953 105.638 44.3229 106.173C43.6505 106.709 43.016 106.977 42.4186 106.977L42.4193 106.977ZM46.0796 102.906C46.5107 102.186 46.8596 101.452 47.1252 100.705C47.3902 99.9563 47.5238 99.2692 47.5238 98.641C47.5238 98.124 47.4533 97.7361 47.3123 97.4781C47.1713 97.22 46.9931 97.0901 46.7772 97.0901C46.5449 97.0901 46.3081 97.2151 46.0677 97.4643C45.8272 97.7135 45.6276 98.0547 45.4703 98.4886C45.3122 98.9225 45.2335 99.3983 45.2335 99.9152C45.2335 100.488 45.304 101.037 45.445 101.563C45.586 102.089 45.7983 102.537 46.0803 102.906H46.0796Z" fill="white"/>
</svg>
