<svg width="57" height="118" viewBox="0 0 57 118" fill="none" xmlns="http://www.w3.org/2000/svg">
<path d="M19.4535 74.6669V59.9222H20.4878V74.6669H19.4535ZM24.8889 28.6445L25.8413 29.0725L25.7172 29.3616L25.5798 29.6438L25.4309 29.9174L25.2703 30.1842L25.1007 30.444L24.922 30.6979L24.735 30.9458L24.5414 31.1886L24.342 31.4262L24.1384 31.6595L23.9299 31.8885L23.7181 32.1141L23.5046 32.3371L23.2895 32.5558L23.0744 32.7728L22.8592 32.9873L22.6457 33.2L22.4348 33.411L22.2262 33.6211L22.0219 33.8304L21.8225 34.0389L21.6288 34.2464L21.4418 34.454L21.2623 34.6607L21.0918 34.8666L20.9297 35.0733L20.7774 35.28L20.6368 35.4867L20.5077 35.6935L20.3902 35.9002L20.2859 36.1077L20.1949 36.317L19.245 35.883L19.3609 35.618L19.4908 35.3598L19.6331 35.1076L19.787 34.8614L19.9508 34.6213L20.1238 34.3854L20.305 34.1538L20.4936 33.9256L20.6881 33.7009L20.8883 33.4796L21.0927 33.2609L21.3004 33.0439L21.5113 32.8286L21.724 32.6141L21.9383 32.4006L22.1518 32.1878L22.3644 31.9751L22.5754 31.7615L22.7848 31.548L22.99 31.3344L23.1918 31.1191L23.3879 30.9038L23.5783 30.6859L23.7619 30.4672L23.9374 30.2468L24.1045 30.0246L24.2625 29.7999L24.4106 29.5734L24.548 29.3453L24.6746 29.1137L24.7888 28.8804L24.8906 28.6428L24.8889 28.6445ZM37.3392 38.2633H19.9128V37.1662H37.3392L37.8563 37.7143L37.3392 38.2624V38.2633ZM37.3392 37.1662H37.8563V37.7143L37.3392 37.1662ZM36.822 55.5134V37.7152H37.8563V55.5134L37.3392 56.0615L36.822 55.5134ZM37.8563 55.5134V56.0615H37.3392L37.8563 55.5134ZM19.9128 54.9653H37.3392V56.0624H19.9128L19.3956 55.5142L19.9128 54.9661V54.9653ZM19.9128 56.0624H19.3956V55.5142L19.9128 56.0624ZM20.4299 37.7152V55.5134H19.3956V37.7152L19.9128 37.1671L20.4299 37.7152ZM19.3956 37.7152V37.1671H19.9128L19.3956 37.7152ZM17.2989 82.7031H39.5178V83.8001H17.2989L16.7818 83.252L17.2989 82.7039V82.7031ZM17.2989 83.8001H16.7818V83.252L17.2989 83.8001ZM16.7818 36.0975H17.8161V37.5668V39.0369V40.508V41.979V43.4509V44.9237V46.3964V47.8692V49.3428V50.8164V52.2908V53.7653V55.2398V56.7142V58.1887V59.664V61.1394V62.6147V64.09V65.5653V67.0406V68.516V69.9913V71.4658V72.9402V74.4147V75.8892V77.3628V78.8364V80.31V81.7827V83.2555H16.7818V81.7827V80.31V78.8364V77.3628V75.8892V74.4147V72.9402V71.4658V69.9913V68.516V67.0406V65.5653V64.09V62.6147V61.1394V59.664V58.1887V56.7142V55.2398V53.7653V52.2908V50.8164V49.3428V47.8692V46.3964V44.9237V43.4509V41.979V40.508V39.0369V37.5668V36.0975ZM24.8136 24.5016V25.5986L25.3307 25.0505L25.3043 25.4665L25.2306 25.8757L25.1131 26.2763L24.9584 26.6665L24.7697 27.0491L24.5513 27.4239L24.3072 27.7928L24.04 28.1573L23.7528 28.5176L23.4483 28.8744L23.129 29.2286L22.798 29.5803L22.4571 29.9303L22.1096 30.2785L21.7587 30.625L21.4054 30.9707L21.0546 31.3138L20.7079 31.656L20.3678 31.9974L20.0377 32.3362L19.72 32.6733L19.418 33.0087L19.135 33.3415L18.8727 33.6709L18.6336 33.9968L18.4217 34.3176L18.2389 34.6333L18.0866 34.9421L17.9675 35.2423L17.8823 35.5348L17.831 35.8178L17.8136 36.0949H16.7793L16.8049 35.6772L16.8794 35.2672L16.9969 34.8657L17.1516 34.4737L17.3403 34.0903L17.5587 33.7138L17.8028 33.3441L18.0693 32.9795L18.3564 32.6184L18.6617 32.2608L18.9803 31.9065L19.3112 31.554L19.6521 31.2032L19.9996 30.8549L20.3505 30.5084L20.703 30.1627L21.0538 29.8196L21.4005 29.4774L21.7405 29.1368L22.0707 28.798L22.3884 28.4609L22.6896 28.1264L22.9734 27.7945L23.2357 27.4651L23.474 27.14L23.6858 26.8192L23.8687 26.5044L24.0209 26.1965L24.1392 25.8971L24.2245 25.6064L24.2758 25.3242L24.2932 25.0488L24.8103 24.5007L24.8136 24.5016ZM24.2965 25.0497V24.5016H24.8136L24.2965 25.0497ZM32.2464 25.0025H31.2121L31.7292 25.5506H31.2923L30.8985 25.5515L30.5435 25.5523L30.2266 25.5532L29.9445 25.554L29.6938 25.5558L29.4712 25.5575L29.2743 25.5592L29.1005 25.5609L28.9466 25.5626L28.8109 25.5643L28.6884 25.5669L28.5767 25.5686L28.4741 25.5712L28.3765 25.5729L28.283 25.5755L28.187 25.5781L28.0894 25.5798L27.9843 25.5823L27.8718 25.5841L27.7477 25.5866L27.6078 25.5884L27.4514 25.5901L27.276 25.5918L27.0774 25.5935L26.854 25.5952L26.6017 25.5969L26.317 25.5978L25.9993 25.5986L25.6443 25.5995L25.2497 25.6004H24.8119V24.5033H25.2488L25.6427 24.5024L25.9976 24.5016L26.3146 24.5007L26.5967 24.4999L26.8474 24.4982L27.07 24.4964L27.2669 24.4947L27.4415 24.493L27.5946 24.4913L27.7303 24.4896L27.8527 24.487L27.9636 24.4853L28.0662 24.4827L28.1639 24.481L28.2573 24.4784L28.3533 24.4759L28.451 24.4741L28.5552 24.4716L28.6678 24.4698L28.7919 24.4673L28.9317 24.4656L29.0873 24.4638L29.2627 24.4621L29.4613 24.4604L29.6847 24.4587L29.937 24.457L30.2208 24.4561L30.5386 24.4553L30.8935 24.4544L31.2882 24.4536H31.7259L32.2431 25.0017L32.2464 25.0025ZM31.7292 24.4544H32.2464V25.0025L31.7292 24.4544ZM40.0341 35.9825H38.9998L38.9824 35.7132L38.9295 35.4361L38.841 35.1496L38.7185 34.8529L38.5613 34.5475L38.3718 34.2344L38.1525 33.9162L37.9051 33.592L37.6329 33.2643L37.3392 32.9332L37.0264 32.5996L36.6971 32.2642L36.3554 31.9262L36.0029 31.5866L35.6438 31.2452L35.2797 30.9029L34.914 30.559L34.5499 30.2142L34.19 29.8676L33.8375 29.5194L33.4941 29.1694L33.1632 28.816L32.8479 28.4609L32.5509 28.1024L32.2745 27.7404L32.0213 27.3733L31.7954 27.0002L31.5993 26.6194L31.438 26.2299L31.3163 25.8311L31.2386 25.4219L31.2113 25.0051H32.2455L32.2629 25.2744L32.3159 25.5515L32.4044 25.838L32.5269 26.1347L32.6841 26.4401L32.8736 26.7532L33.0928 27.0714L33.3402 27.3956L33.6124 27.7233L33.9062 28.0544L34.219 28.388L34.5483 28.7234L34.89 29.0614L35.2425 29.401L35.6016 29.7424L35.9648 30.0847L36.3305 30.4286L36.6946 30.7734L37.0545 31.12L37.407 31.4682L37.7504 31.8182L38.0814 32.1716L38.3966 32.5267L38.6937 32.8852L38.97 33.2472L39.2232 33.6143L39.4491 33.9874L39.6452 34.3682L39.8066 34.7577L39.9282 35.1565L40.006 35.5657L40.0333 35.9825H40.0341ZM38.9998 83.252V35.9825H40.0341V83.252L39.517 83.8001L38.9998 83.252ZM40.0341 83.252V83.8001H39.517L40.0341 83.252ZM25.3299 9.9199V25.0497H24.2956V9.9199L24.8128 9.3718L25.3299 9.9199ZM24.2956 9.9199V9.3718H24.8128L24.2956 9.9199ZM31.7284 10.468H24.8119V9.37095H31.7284L32.2455 9.91905L31.7284 10.4671V10.468ZM31.7284 9.37095H32.2455V9.91905L31.7284 9.37095ZM31.2113 25.0017V9.91905H32.2455V25.0017H31.2113ZM24.1401 8.65387L25.1338 9.48932L24.4917 10.3496L23.498 9.51419L23.3019 9.08532L24.1401 8.65387ZM23.498 9.51419L23.3027 9.35036L23.3019 9.08532L23.498 9.51419ZM24.332 7.28062L24.3362 9.08274L23.3019 9.08532L23.2978 7.28319L23.5228 6.82945L24.332 7.28062ZM23.2978 7.28319L23.2969 6.99328L23.522 6.82945L23.2969 7.28319H23.2978ZM25.1049 7.00786L24.107 7.73437L23.5228 6.82945L24.5207 6.10293L24.8128 6.00687L25.1049 7.00786ZM24.5207 6.10293L24.6523 6.00687H24.8128L24.5207 6.10293ZM31.7292 7.10392H24.8128V6.00687H31.7292L32.0213 6.10293L31.7292 7.10392ZM31.7292 6.00687H31.8897L32.0213 6.10293L31.7292 6.00687ZM32.4292 7.73008L31.4363 7.00786L32.0205 6.10293L33.0134 6.82516L33.2385 7.27719L32.4292 7.72922V7.73008ZM33.0134 6.82516L33.2385 6.98899V7.27805L33.0134 6.82601V6.82516ZM32.2042 9.0836V7.27719H33.2385V9.0836L33.0424 9.51333L32.2042 9.0836ZM33.2385 9.0836V9.34865L33.0424 9.51333L33.2385 9.0836ZM31.4082 9.48932L32.4011 8.65387L33.0432 9.51333L32.0503 10.3488L31.4082 9.48932ZM26.3179 1.52772V6.55411H25.2836V1.52772L25.8007 0.979618L26.3179 1.52772ZM25.2836 1.52772V0.979618H25.8007L25.2836 1.52772ZM30.7405 2.07582H25.8007V0.97876H30.7405L31.2576 1.52686L30.7405 2.07496V2.07582ZM30.7405 0.97876H31.2576V1.52686L30.7405 0.97876ZM30.2233 6.55411V1.52772H31.2576V6.55411H30.2233Z" fill="white"/>
<path d="M13.2686 117.022C12.6167 117.022 11.7974 116.371 10.8108 115.068C9.8241 113.766 8.84161 112.199 7.86412 110.368C6.88579 108.536 6.08981 106.857 5.47534 105.33C5.04737 106.838 4.54447 108.698 3.96664 110.911C3.65024 112.164 3.19397 113.868 2.59781 116.022C2.11323 116.022 1.68526 115.881 1.31308 115.597C0.940901 115.313 0.754395 114.965 0.754395 114.554C0.754395 114.26 0.885116 113.722 1.14573 112.938C2.39299 108.865 3.53784 105.355 4.58111 102.407C5.62355 99.4604 6.83417 96.3418 8.21216 93.0513C7.50443 93.1685 6.89412 93.3404 6.38206 93.5653C5.87 93.7903 5.31631 94.0691 4.72016 94.4019C4.36629 94.6174 4.14315 94.7252 4.0499 94.7252C3.91918 94.7252 3.74266 94.6268 3.51869 94.4309C3.29555 94.2351 3.18397 94.0683 3.18397 93.9314C5.56776 92.8545 7.66263 92.3157 9.46858 92.3157C10.6234 92.3157 11.7408 92.5115 12.8207 92.9033C13.9006 93.295 14.7898 93.9023 15.4884 94.7243C16.1861 95.5463 16.5358 96.5744 16.5358 97.8087C16.5358 99.5511 15.8697 100.897 14.5384 101.848C13.207 102.797 11.7541 103.424 10.1813 103.728C8.60765 104.031 7.25298 104.183 6.11646 104.183C6.30296 104.535 6.47448 104.858 6.63351 105.152C6.79171 105.446 6.93575 105.71 7.06564 105.945C7.86662 107.453 8.56935 108.696 9.17549 109.675C9.77997 110.654 10.5343 111.688 11.4377 112.774C12.3403 113.86 13.426 114.952 14.6924 116.049C14.5809 116.304 14.3802 116.53 14.0913 116.725C13.8032 116.921 13.5276 117.019 13.2678 117.019L13.2686 117.022ZM5.92162 103.715C7.39286 103.617 8.78999 103.322 10.1114 102.833C11.4336 102.344 12.5226 101.629 13.3802 100.689C14.237 99.7478 14.6649 98.5837 14.6649 97.1929C14.6649 95.7046 14.1854 94.6225 13.2254 93.9477C12.267 93.2719 11.0797 92.9341 9.66424 92.9341C8.54687 95.2846 7.29961 98.8779 5.92079 103.715H5.92162ZM17.5425 113.761C17.2819 113.761 17.0679 113.693 16.8997 113.556C16.7323 113.419 16.6482 113.223 16.6482 112.968C16.6482 112.655 16.8248 112.376 17.1786 112.131C17.5325 111.886 17.8955 111.764 18.2677 111.764C18.7514 111.764 18.9937 111.999 18.9937 112.469C18.9937 112.763 18.8405 113.051 18.5333 113.335C18.2261 113.619 17.8955 113.761 17.5416 113.761H17.5425ZM24.3308 114.407C23.5673 114.407 23.0086 114.162 22.6539 113.673C22.3001 113.184 22.1235 112.537 22.1235 111.734C22.1235 110.931 22.2817 110.089 22.599 109.208C22.9154 108.327 23.325 107.592 23.8279 107.005C24.3308 106.417 24.8337 106.123 25.3366 106.123C25.504 106.123 25.6996 106.172 25.9228 106.27C25.6988 106.466 25.4299 106.896 25.1126 107.562C24.7962 108.229 24.5206 108.938 24.2883 109.691C24.0552 110.446 23.9395 111.057 23.9395 111.528C23.9395 112.644 24.2742 113.202 24.9453 113.202C25.3366 113.202 25.802 112.987 26.3424 112.556C26.8828 112.125 27.4132 111.557 27.9344 110.852C27.4132 110.401 27.0077 109.814 26.7196 109.09C26.4307 108.365 26.2866 107.611 26.2866 106.828C26.2866 105.81 26.5339 104.938 27.0268 104.214C27.5206 103.489 28.1867 103.126 29.0243 103.126C29.732 103.126 30.2299 103.327 30.5188 103.729C30.8077 104.13 30.9518 104.683 30.9518 105.388C30.9518 106.132 30.7794 106.969 30.4347 107.899C30.09 108.829 29.6388 109.735 29.0801 110.616C29.4156 110.812 29.7695 110.91 30.1417 110.91C30.682 110.91 31.2407 110.739 31.8185 110.396C32.3956 110.054 32.8335 109.52 33.1316 108.796L33.4663 109.089C33.1124 109.951 32.6095 110.587 31.9576 110.998C31.3057 111.41 30.6354 111.615 29.946 111.615C29.4431 111.615 28.996 111.517 28.6046 111.321C27.9344 112.241 27.2225 112.986 26.4681 113.554C25.7138 114.122 25.0019 114.406 24.3316 114.406L24.3308 114.407ZM28.4365 110.089C28.9202 109.325 29.3115 108.547 29.6104 107.754C29.9077 106.96 30.0576 106.231 30.0576 105.565C30.0576 105.017 29.9785 104.605 29.8194 104.332C29.6612 104.058 29.4614 103.92 29.2191 103.92C28.9585 103.92 28.6929 104.053 28.4231 104.317C28.1525 104.581 27.9294 104.943 27.7529 105.403C27.5755 105.864 27.4873 106.368 27.4873 106.916C27.4873 107.524 27.5664 108.106 27.7246 108.664C27.8828 109.222 28.1209 109.697 28.4373 110.089H28.4365ZM34.9176 114.349C34.154 114.349 33.5904 114.074 33.2273 113.527C32.8635 112.978 32.6828 112.244 32.6828 111.323C32.6828 109.561 33.2598 107.167 34.4155 104.142C35.5695 101.116 36.8592 98.3895 38.2847 95.9612C39.7093 93.5328 40.7376 92.3182 41.3712 92.3182C41.6318 92.3182 41.8508 92.5577 42.0273 93.0376C42.2038 93.5174 42.2929 94.0024 42.2929 94.4917C42.2929 95.3924 41.944 96.719 41.2454 98.4716C40.5469 100.224 39.6302 102.002 38.4936 103.803C37.3571 105.605 36.1465 107.064 34.8626 108.18C34.6203 109.316 34.4987 110.304 34.4987 111.147C34.4987 112.655 34.9084 113.409 35.7277 113.409C36.4171 113.409 37.1198 112.949 37.8367 112.029C38.5536 111.109 39.1914 110.002 39.7501 108.709L40.1697 108.944C38.5677 112.547 36.8176 114.349 34.9184 114.349L34.9176 114.349ZM35.1132 107.182C36.1373 106.104 37.1381 104.748 38.1165 103.113C39.094 101.477 39.8899 99.9112 40.5044 98.4134C41.1189 96.9149 41.4261 95.8337 41.4261 95.1674C41.4261 94.8535 41.3612 94.6978 41.2305 94.6978C40.9699 94.6978 40.4345 95.3684 39.6243 96.7096C38.8142 98.0508 37.9808 99.6913 37.124 101.63C36.2672 103.569 35.597 105.42 35.1124 107.182H35.1132ZM44.5551 100.778C44.2204 100.778 43.9456 100.695 43.7308 100.528C43.5168 100.362 43.4094 100.122 43.4094 99.8085C43.4094 99.4168 43.6334 99.0635 44.0797 98.7513C44.5268 98.4383 44.9831 98.2817 45.4485 98.2817C46.063 98.2817 46.3702 98.5854 46.3702 99.1927C46.3702 99.5647 46.1795 99.9223 45.7982 100.264C45.4169 100.607 45.0022 100.778 44.5551 100.778V100.778ZM41.203 114.231C40.5136 114.231 39.9832 114.001 39.611 113.541C39.238 113.081 39.0523 112.489 39.0523 111.764C39.0523 111 39.2622 109.943 39.6801 108.591C40.0989 107.24 40.621 106.055 41.2446 105.036C41.8682 104.018 42.4786 103.509 43.0739 103.509C43.2421 103.509 43.3861 103.567 43.5068 103.685C43.6276 103.802 43.6892 103.96 43.6892 104.155C43.6892 104.429 43.3911 105.085 42.795 106.123C42.1805 107.2 41.6917 108.164 41.3279 109.016C40.9649 109.868 40.7833 110.676 40.7833 111.44C40.7833 112.125 40.8908 112.59 41.1047 112.835C41.3187 113.08 41.6684 113.202 42.1522 113.202C43.6051 113.202 45.0389 111.704 46.4543 108.708L46.7058 109.002C46.1845 110.647 45.4169 111.93 44.4011 112.85C43.3861 113.77 42.3204 114.231 41.203 114.231V114.231ZM47.8514 114.408C47.0879 114.408 46.5292 114.163 46.1745 113.674C45.8207 113.184 45.6442 112.538 45.6442 111.735C45.6442 110.931 45.8024 110.09 46.1196 109.209C46.436 108.328 46.8456 107.593 47.3485 107.005C47.8514 106.418 48.3543 106.124 48.8572 106.124C49.0246 106.124 49.2203 106.173 49.4434 106.271C49.2194 106.467 48.9505 106.897 48.6333 107.563C48.3169 108.229 48.0421 108.938 47.809 109.692C47.5767 110.446 47.4601 111.058 47.4601 111.529C47.4601 112.645 47.7957 113.203 48.4659 113.203C48.8572 113.203 49.3227 112.988 49.8622 112.557C50.4026 112.126 50.933 111.558 51.4542 110.853C50.933 110.402 50.5283 109.815 50.2394 109.091C49.9513 108.366 49.8064 107.612 49.8064 106.829C49.8064 105.81 50.0537 104.939 50.5466 104.214C51.0404 103.49 51.7056 103.127 52.5441 103.127C53.2518 103.127 53.7497 103.327 54.0386 103.729C54.3267 104.131 54.4716 104.684 54.4716 105.389C54.4716 106.133 54.2992 106.97 53.9545 107.9C53.6098 108.83 53.1585 109.736 52.5999 110.617C52.9346 110.813 53.2884 110.911 53.6614 110.911C54.2018 110.911 54.7605 110.74 55.3375 110.397C55.9145 110.055 56.3525 109.521 56.6506 108.797L56.9853 109.09C56.6314 109.952 56.1285 110.588 55.4766 110.999C54.8246 111.41 54.1544 111.616 53.465 111.616C52.9621 111.616 52.5149 111.517 52.1236 111.322C51.4533 112.242 50.7415 112.987 49.9871 113.555C49.2328 114.123 48.5209 114.407 47.8506 114.407L47.8514 114.408ZM51.9579 110.09C52.4417 109.326 52.833 108.548 53.1311 107.755C53.4283 106.961 53.5782 106.232 53.5782 105.566C53.5782 105.018 53.4991 104.606 53.3409 104.332C53.1827 104.059 52.9829 103.921 52.7406 103.921C52.48 103.921 52.2144 104.054 51.9446 104.318C51.6748 104.582 51.4509 104.944 51.2743 105.404C51.097 105.864 51.0087 106.369 51.0087 106.917C51.0087 107.525 51.0878 108.107 51.246 108.665C51.4042 109.222 51.6424 109.698 51.9587 110.09H51.9579Z" fill="white"/>
</svg>
