<svg width="40" height="40" viewBox="0 0 40 40" fill="none" xmlns="http://www.w3.org/2000/svg">
<g clip-path="url(#clip0_1_1052)">
<path d="M38.1661 14.2026H34.2312L32.242 6.40201C31.9921 5.42186 30.9913 4.82803 30.0114 5.07779L25.4763 6.2342C25.1704 6.31217 24.9857 6.62342 25.0636 6.92927C25.1417 7.23513 25.4528 7.41974 25.7587 7.34193L30.2938 6.18553C30.6634 6.09154 31.0402 6.31521 31.1344 6.68451L31.3547 7.54865L1.38562 15.1905L1.16531 14.3264C1.11968 14.1475 1.14648 13.9615 1.2407 13.8028C1.335 13.644 1.48547 13.5315 1.66437 13.4858L22.2783 8.22935C22.5842 8.15138 22.7689 7.84013 22.691 7.53427C22.6129 7.22842 22.3019 7.04381 21.9959 7.12162L1.38187 12.3781C0.401717 12.628 -0.192344 13.6287 0.0575773 14.6088L4.28476 31.1863C4.49608 32.0149 5.24397 32.5677 6.06249 32.5676C6.21202 32.5676 6.36405 32.5491 6.51546 32.5105L6.78608 32.4415V33.1448C6.78608 34.1563 7.60897 34.9792 8.62045 34.9792H38.1661C39.1776 34.9792 40.0005 34.1563 40.0005 33.1448V16.037C40.0005 15.0255 39.1776 14.2026 38.1661 14.2026ZM6.78616 31.2618L6.23311 31.4028C5.86382 31.497 5.48671 31.2731 5.39249 30.9038L2.80499 20.7567L6.78616 19.7415V31.2618ZM6.78616 16.0369V18.5618L2.52257 19.649L1.66812 16.2981L7.19053 14.8899C6.93788 15.2043 6.78616 15.6032 6.78616 16.0369ZM33.0515 14.2025H28.508L32.7741 13.1147L33.0515 14.2025ZM31.6372 8.65615L32.4917 12.0071L23.8818 14.2026H9.88607L31.6372 8.65615ZM38.1661 33.8361H8.62053C8.23936 33.8361 7.9292 33.526 7.9292 33.1448V31.7059V16.037C7.9292 15.6558 8.23928 15.3457 8.62053 15.3457H38.1661C38.5473 15.3457 38.8573 15.6558 38.8573 16.037V33.1448C38.8573 33.526 38.5473 33.8361 38.1661 33.8361Z" fill="#688800"/>
<path d="M22.7606 28.2729H10.3069C9.99129 28.2729 9.73535 28.5287 9.73535 28.8443C9.73535 29.1598 9.99129 29.4156 10.3069 29.4156H22.7606C23.0762 29.4156 23.3322 29.1598 23.3322 28.8443C23.3322 28.5288 23.0763 28.2729 22.7606 28.2729Z" fill="#688800"/>
<path d="M32.2854 18.2224C31.4645 18.2224 30.7048 18.4874 30.0856 18.9353C29.4475 18.473 28.6822 18.2224 27.8834 18.2224C25.8086 18.2224 24.1206 19.9104 24.1206 21.9852C24.1208 24.06 25.8087 25.7479 27.8835 25.7479C28.6822 25.7479 29.4475 25.4973 30.0856 25.0351C30.7048 25.4829 31.4646 25.7479 32.2854 25.7479C34.3602 25.7479 36.0482 24.06 36.0482 21.9852C36.0482 19.9104 34.3602 18.2224 32.2854 18.2224ZM28.5272 22.1636C28.5279 22.1783 28.529 22.1929 28.5298 22.2076C28.5325 22.2555 28.5362 22.3032 28.5408 22.3508C28.5418 22.3619 28.5429 22.373 28.544 22.384C28.6137 23.0525 28.8576 23.6804 29.2553 24.2167C28.8459 24.4694 28.3736 24.6047 27.8835 24.6047C26.439 24.6047 25.2638 23.4296 25.2638 21.9851C25.2639 20.5408 26.439 19.3655 27.8835 19.3655C28.3736 19.3655 28.8459 19.5009 29.2553 19.7536C28.8576 20.2899 28.6137 20.9178 28.544 21.5862C28.5429 21.5973 28.5418 21.6083 28.5408 21.6194C28.5362 21.667 28.5326 21.7147 28.5298 21.7626C28.529 21.7773 28.5279 21.7919 28.5272 21.8065C28.5245 21.8658 28.5227 21.9253 28.5227 21.9851C28.5227 22.0448 28.5245 22.1043 28.5272 22.1636ZM32.2856 24.6048C31.5704 24.6048 30.9215 24.3165 30.4482 23.8502C30.4385 23.8406 30.4289 23.8309 30.4193 23.8212C30.3975 23.799 30.3758 23.7765 30.3548 23.7536C30.349 23.7472 30.3433 23.7408 30.3375 23.7344C30.3129 23.7069 30.2885 23.6791 30.265 23.6506C30.2648 23.6504 30.2647 23.6503 30.2646 23.6501C29.8908 23.1972 29.6659 22.6169 29.6659 21.9851C29.6658 21.3533 29.8907 20.773 30.2647 20.32C30.2647 20.3199 30.2648 20.3198 30.2649 20.3197C30.2885 20.2911 30.3129 20.2633 30.3377 20.2357C30.3434 20.2294 30.349 20.223 30.3548 20.2168C30.3759 20.1937 30.3975 20.1712 30.4194 20.149C30.429 20.1394 30.4385 20.1298 30.4482 20.1202C30.9214 19.654 31.5704 19.3655 32.2856 19.3655C33.73 19.3655 34.9052 20.5407 34.9052 21.9852C34.9052 23.4297 33.73 24.6048 32.2856 24.6048Z" fill="#688800"/>
<path d="M14.3804 18.594H11.8737C10.6948 18.594 9.73584 19.553 9.73584 20.7318V23.2385C9.73576 24.4174 10.6948 25.3763 11.8737 25.3763H14.3804C15.5591 25.3763 16.5182 24.4174 16.5182 23.2385V20.7318C16.5182 19.5531 15.5592 18.594 14.3804 18.594ZM15.375 22.2922H14.1557C13.8401 22.2922 13.5841 22.5481 13.5841 22.8638C13.5841 23.1795 13.84 23.4353 14.1557 23.4353H15.3553C15.2636 23.8899 14.8614 24.2333 14.3803 24.2333H11.8736C11.3924 24.2333 10.9901 23.8899 10.8986 23.4353H12.0982C12.4138 23.4353 12.6697 23.1795 12.6697 22.8638C12.6697 22.5481 12.4139 22.2922 12.0982 22.2922H10.8789V21.7969H12.0982C12.4138 21.7969 12.6697 21.541 12.6697 21.2253C12.6697 20.9097 12.4139 20.6538 12.0982 20.6538H10.8828C10.9228 20.1417 11.3514 19.737 11.8736 19.737H14.3803C14.9025 19.737 15.331 20.1417 15.3711 20.6538H14.1557C13.8401 20.6538 13.5841 20.9096 13.5841 21.2253C13.5841 21.541 13.84 21.7969 14.1557 21.7969H15.375V22.2922Z" fill="#688800"/>
<path d="M36.1805 30.7878H16.2796C15.9639 30.7878 15.708 31.0436 15.708 31.3592C15.708 31.6747 15.9639 31.9305 16.2796 31.9305H36.1805C36.4962 31.9305 36.7521 31.6747 36.7521 31.3592C36.7521 31.0436 36.4963 30.7878 36.1805 30.7878Z" fill="#688800"/>
<path d="M12.6365 30.7878H10.3074C9.99178 30.7878 9.73584 31.0436 9.73584 31.3592C9.73584 31.6747 9.9917 31.9305 10.3074 31.9305H12.6365C12.9522 31.9305 13.2081 31.6747 13.2081 31.3592C13.2081 31.0436 12.9522 30.7878 12.6365 30.7878Z" fill="#688800"/>
</g>
<defs>
<clipPath id="clip0_1_1052">
<rect width="40" height="40" fill="white"/>
</clipPath>
</defs>
</svg>
