<svg width="32" height="32" viewBox="0 0 32 32" fill="none" xmlns="http://www.w3.org/2000/svg">
<path d="M27.3137 4.68638C24.2917 1.66425 20.2737 0 16 0C11.7263 0 7.70831 1.66425 4.68631 4.68638C1.66425 7.70831 0 11.7263 0 16C0 20.2737 1.66425 24.2917 4.68631 27.3137C7.70831 30.3358 11.7263 32 16 32C20.2737 32 24.2917 30.3358 27.3137 27.3136C30.3358 24.2917 32 20.2737 32 16C32 11.7263 30.3358 7.70831 27.3137 4.68638ZM16 30.9895C7.73475 30.9895 1.0105 24.2653 1.0105 16C1.0105 7.73475 7.73475 1.0105 16 1.0105C24.2653 1.0105 30.9895 7.73475 30.9895 16C30.9895 24.2653 24.2653 30.9895 16 30.9895Z" fill="#688800"/>
<path d="M25.4518 22.6631L24.9048 19.7873C24.8624 19.5646 24.6845 19.3894 24.4557 19.345L20.1537 18.51C19.9667 18.4738 19.7734 18.5305 19.6385 18.6614L17.8721 20.3757C14.895 19.086 13.2499 17.4862 11.8008 14.4732L13.5618 12.7642C13.6965 12.6334 13.755 12.4457 13.7178 12.2642L12.8574 8.0891C12.8116 7.867 12.6311 7.6944 12.4016 7.65332L9.43848 7.12254C9.36236 7.10873 9.28411 7.11046 9.20863 7.1271C8.43321 7.29804 7.72565 7.67728 7.1625 8.22387C6.1876 9.17006 5.81518 10.5525 6.0858 12.2216C6.20901 12.9814 6.39213 13.7687 6.63009 14.5615C6.7183 14.8551 7.03537 15.0233 7.33729 14.9382C7.63978 14.8526 7.8135 14.5454 7.72543 14.2518C7.50091 13.504 7.32847 12.763 7.2128 12.0494C6.99824 10.7257 7.25271 9.70202 7.9693 9.00658C8.35353 8.63362 8.82967 8.36754 9.35212 8.23271L11.8147 8.67394L12.5395 12.1908L10.7143 13.9621C10.5472 14.1243 10.5005 14.3697 10.5968 14.5791C12.256 18.1852 14.2024 20.0727 17.7784 21.5432C17.9926 21.6312 18.24 21.5844 18.4043 21.425L20.2294 19.6537L23.8532 20.357L24.3079 22.7469C24.169 23.2539 23.8947 23.716 23.5106 24.0889C22.7937 24.7842 21.7387 25.0313 20.3749 24.8229C17.6484 24.4066 13.8663 23.122 11.4289 20.7658L11.3938 20.7318C10.2725 19.6393 9.27308 18.1324 8.5037 16.3741C8.38049 16.0926 8.04571 15.9615 7.75574 16.0809C7.46577 16.2004 7.33053 16.5254 7.45368 16.8068C8.27954 18.6939 9.36258 20.3214 10.5878 21.5153L10.623 21.5494C13.2546 24.0932 17.2944 25.4733 20.1976 25.9166C20.5619 25.9721 20.9128 25.9998 21.2492 25.9998C22.5006 25.9998 23.5484 25.6173 24.3169 24.8716C24.8801 24.325 25.2709 23.6383 25.447 22.8859C25.4643 22.8128 25.4659 22.7369 25.4518 22.6631Z" fill="#688800"/>
<path d="M17.5206 10.7236C17.2055 10.7236 16.9502 10.9714 16.9502 11.2772C16.9502 11.583 17.2055 11.8308 17.5206 11.8308C18.8835 11.8308 19.9922 12.9068 19.9922 14.2294C19.9922 14.5311 20.2518 14.783 20.5626 14.783C20.8734 14.783 21.133 14.5311 21.133 14.2294C21.133 12.2964 19.5124 10.7236 17.5206 10.7236Z" fill="#688800"/>
<path d="M17.5207 8.36182C17.297 8.36182 17.0712 8.37383 16.8497 8.39751C16.5366 8.43106 16.3108 8.7046 16.3453 9.00845C16.3799 9.31222 16.6615 9.5306 16.9748 9.49794C17.155 9.47861 17.3385 9.4688 17.5206 9.4688C20.2253 9.4688 22.4258 11.6044 22.4258 14.2293C22.4258 14.406 22.4157 14.5842 22.3958 14.759C22.3614 15.0629 22.5872 15.3365 22.9003 15.37C23.2092 15.4024 23.4956 15.1809 23.5298 14.8805C23.5542 14.6655 23.5666 14.4463 23.5666 14.2293C23.5667 10.994 20.8545 8.36182 17.5207 8.36182Z" fill="#688800"/>
<path d="M17.5206 6C17.304 6 17.0849 6.00808 16.8691 6.02389C16.555 6.04702 16.3196 6.31282 16.3435 6.6177C16.3674 6.92258 16.6399 7.15048 16.9553 7.12777C17.1425 7.11396 17.3327 7.10706 17.5206 7.10706C21.5673 7.10706 24.8595 10.3021 24.8595 14.2293C24.8595 14.785 24.7934 15.3381 24.6632 15.8734C24.5925 16.1633 24.7796 16.4624 25.0765 16.5367C25.3816 16.613 25.7009 16.4253 25.7732 16.128C25.9238 15.5094 26.0002 14.8707 26.0002 14.2293C26.0002 9.69171 22.1962 6 17.5206 6Z" fill="#688800"/>
</svg>
