<svg width="32" height="32" viewBox="0 0 32 32" fill="none" xmlns="http://www.w3.org/2000/svg">
<path d="M27.3137 4.68631C24.2917 1.66425 20.2737 0 16 0C11.7263 0 7.70831 1.66425 4.68631 4.68631C1.66425 7.70831 0 11.7263 0 16C0 20.2737 1.66425 24.2917 4.68631 27.3137C7.70831 30.3358 11.7263 32 16 32C20.2737 32 24.2917 30.3358 27.3137 27.3137C30.3357 24.2916 32 20.2737 32 16C32 11.7263 30.3358 7.70831 27.3137 4.68631ZM16 30.9895C7.73475 30.9895 1.0105 24.2653 1.0105 16C1.0105 7.73475 7.73475 1.0105 16 1.0105C24.2653 1.0105 30.9895 7.73475 30.9895 16C30.9895 24.2653 24.2653 30.9895 16 30.9895Z" fill="#688800"/>
<path d="M21.7401 6.06348H10.2595C7.94549 6.06348 6.06299 7.94604 6.06299 10.26V21.7407C6.06299 24.0546 7.94555 25.9372 10.2595 25.9372H21.7402C24.0541 25.9372 25.9367 24.0546 25.9367 21.7407V10.26C25.9366 7.94598 24.0541 6.06348 21.7401 6.06348ZM24.9261 21.7406C24.9261 23.4974 23.4969 24.9266 21.7401 24.9266H10.2595C8.50274 24.9266 7.07349 23.4974 7.07349 21.7406V10.26C7.07349 8.50323 8.50274 7.07398 10.2595 7.07398H21.7402C23.4969 7.07398 24.9262 8.50323 24.9262 10.26V21.7406H24.9261Z" fill="#688800"/>
<path d="M21.2125 15.7015C21.0631 13.0432 18.8999 10.9047 16.2401 10.7847C13.1709 10.6463 10.6442 13.1742 10.7844 16.2439C10.9059 18.9039 13.0462 21.066 15.7049 21.2132C16.8268 21.2754 17.8775 20.9803 18.7551 20.4324C19.0284 20.2617 19.073 19.8815 18.8451 19.6537C18.8427 19.6512 18.8403 19.6489 18.8379 19.6465C18.6719 19.4804 18.4143 19.4553 18.2147 19.5793C17.5591 19.9867 16.784 20.2194 15.9549 20.2107C13.6139 20.186 11.7251 18.2204 11.7911 15.8803C11.8574 13.5252 13.867 11.6477 16.2696 11.7983C18.34 11.928 20.0252 13.5789 20.1958 15.6464C20.2652 16.4885 20.0841 17.2842 19.7202 17.9687C19.616 18.1647 19.6481 18.405 19.8051 18.562C19.8076 18.5645 19.8102 18.5672 19.8128 18.5697C20.0486 18.8055 20.4474 18.7501 20.605 18.4562C21.0414 17.6421 21.2687 16.7001 21.2125 15.7015Z" fill="#688800"/>
<path d="M21.3899 11.2846C22.134 11.2846 22.7372 10.6814 22.7372 9.93722C22.7372 9.19308 22.134 8.58984 21.3899 8.58984C20.6457 8.58984 20.0425 9.19308 20.0425 9.93722C20.0425 10.6814 20.6457 11.2846 21.3899 11.2846Z" fill="#688800"/>
</svg>
