<svg width="32" height="32" viewBox="0 0 32 32" fill="none" xmlns="http://www.w3.org/2000/svg">
<path d="M27.3137 4.68631C24.2917 1.66425 20.2737 0 16 0C11.7263 0 7.70831 1.66425 4.68631 4.68631C1.66425 7.70831 0 11.7263 0 16C0 20.2737 1.66425 24.2917 4.68631 27.3137C7.70831 30.3358 11.7263 32 16 32C20.2737 32 24.2917 30.3358 27.3137 27.3137C30.3357 24.2916 32 20.2737 32 16C32 11.7263 30.3358 7.70831 27.3137 4.68631ZM16 30.9895C7.73475 30.9895 1.0105 24.2653 1.0105 16C1.0105 7.73475 7.73475 1.0105 16 1.0105C24.2653 1.0105 30.9895 7.73475 30.9895 16C30.9895 24.2653 24.2653 30.9895 16 30.9895Z" fill="#688800"/>
<path d="M25.062 6.16463C24.9068 6.04775 24.6984 6.03025 24.5259 6.1195L4.98902 16.2248C4.82014 16.3121 4.71458 16.4869 4.71583 16.677C4.71708 16.8671 4.82502 17.0404 4.99514 17.1255L10.1054 19.6805V24.7434C10.1054 24.8759 10.1505 25.007 10.2416 25.1032C10.3425 25.2096 10.4766 25.263 10.6107 25.263C10.6952 25.263 10.7797 25.2419 10.8561 25.1994L16.7026 21.9513L21.1775 23.8691C21.2726 23.9099 21.378 23.9268 21.4799 23.9078C21.6896 23.8686 21.8455 23.7079 21.8852 23.5095L23.0174 17.8484C23.0799 17.5358 22.8408 17.2441 22.5219 17.2441C22.281 17.2439 22.0737 17.4139 22.0265 17.6501L21.0163 22.7006L16.8729 20.9248C16.7293 20.8633 16.5652 20.8717 16.4285 20.9475L11.116 23.8989V19.3682C11.116 19.1768 11.0078 19.0019 10.8366 18.9163L6.33571 16.6658L24.0563 7.49994L22.5185 15.1889C22.456 15.5016 22.6951 15.7933 23.014 15.7933C23.2548 15.7933 23.4622 15.6232 23.5095 15.3871L25.2535 6.66725C25.2915 6.47688 25.2171 6.28144 25.062 6.16463Z" fill="#688800"/>
<path d="M21.7861 10.2971C21.6273 10.0961 21.343 10.0456 21.1248 10.18L12.3669 15.5695C12.2175 15.6615 12.1265 15.8244 12.1265 15.9998V21.3893C12.1264 21.6237 12.2875 21.8272 12.5155 21.8811C12.5543 21.8903 12.5933 21.8947 12.6318 21.8947C12.8197 21.8947 12.9966 21.7893 13.0835 21.6153L15.0679 17.6466L21.7468 10.9676C21.928 10.7864 21.9449 10.4982 21.7861 10.2971ZM14.2954 16.9899C14.2571 17.0283 14.2251 17.0726 14.2008 17.1212L13.137 19.2489V16.2821L17.9892 13.2961L14.2954 16.9899Z" fill="#688800"/>
</svg>
