<svg width="32" height="32" viewBox="0 0 32 32" fill="none" xmlns="http://www.w3.org/2000/svg">
<path d="M27.3093 4.68628C24.2878 1.66431 20.2705 0 15.9976 0C11.7244 0 7.70703 1.66431 4.68555 4.68628C1.66406 7.70825 0 11.7263 0 16C0 18.9402 0.804443 21.8149 2.32617 24.3132C2.46094 24.5344 2.74951 24.6045 2.97046 24.4697C3.19165 24.335 3.26147 24.0466 3.12695 23.8257C1.69458 21.4744 0.9375 18.7681 0.9375 16C0.9375 11.9766 2.50391 8.19409 5.34839 5.34912C8.19287 2.50415 11.9749 0.9375 15.9976 0.9375C20.02 0.9375 23.802 2.50415 26.6465 5.34912C29.491 8.19409 31.0574 11.9768 31.0574 16C31.0574 20.0232 29.491 23.8059 26.6465 26.6509C23.802 29.4958 20.02 31.0625 15.9976 31.0625C11.3794 31.0625 7.08057 28.9866 4.20312 25.3672C4.04199 25.1646 3.74683 25.1309 3.54443 25.292C3.3418 25.4531 3.30811 25.748 3.46924 25.9507C6.52563 29.7952 11.092 32 15.9976 32C20.2705 32 24.2878 30.3357 27.3093 27.3137C30.3308 24.2917 31.9949 20.2737 31.9949 16C31.9949 11.7263 30.3308 7.70825 27.3093 4.68628Z" fill="#688800"/>
<path d="M13.4288 13.2884L15.0372 12.0772C15.2896 11.8871 15.4215 11.575 15.3817 11.263C15.327 10.8348 15.3023 10.3985 15.3084 9.96616C15.3214 9.0394 14.6192 8.21323 13.71 8.0853L12.3087 7.88779C11.3599 7.75425 10.4818 8.00815 9.83601 8.60312C9.18928 9.19907 8.86384 10.0548 8.91975 11.0128C9.00422 12.4662 9.29255 13.9 9.77644 15.275C10.8572 18.3463 12.8306 20.9674 15.4832 22.8551C16.6705 23.7 17.9688 24.3736 19.3421 24.8565C19.7098 24.9859 20.0787 25.0501 20.4376 25.0501C20.9617 25.0501 21.4644 24.9129 21.9102 24.6419C22.6607 24.1856 23.1478 23.4117 23.2813 22.4627L23.4747 21.0902C23.6031 20.18 22.9923 19.2445 22.1134 19.005C21.701 18.8927 21.2933 18.7503 20.9012 18.5819C20.6031 18.454 20.2567 18.4962 19.9971 18.6917L18.4014 19.8934C18.2613 19.9989 18.0706 20.0045 17.9271 19.9073C17.0213 19.2953 16.2039 18.5594 15.4971 17.7203C15.3304 17.5223 15.0345 17.4969 14.8367 17.6637C14.6387 17.8304 14.6134 18.1261 14.7801 18.3241C15.5426 19.2296 16.4246 20.0235 17.4022 20.6842C17.8773 21.0055 18.5057 20.9886 18.9654 20.6422L20.5479 19.4505C20.9749 19.6329 21.4185 19.7872 21.8668 19.9095C22.2913 20.0252 22.609 20.516 22.5465 20.9596L22.3531 22.3319C22.2594 22.9974 21.929 23.5333 21.4232 23.8409C20.9166 24.1488 20.2879 24.1954 19.6529 23.972C18.3626 23.5182 17.1427 22.8853 16.0267 22.0914C13.5325 20.3163 11.6771 17.8517 10.6607 14.9637C10.2061 13.6715 9.93513 12.3238 9.85554 10.9581C9.81647 10.286 10.035 9.69443 10.471 9.29258C10.9066 8.89145 11.5123 8.72226 12.1778 8.81601L13.5792 9.01352C14.0147 9.0748 14.3773 9.50522 14.3709 9.95298C14.3646 10.4178 14.3902 10.8868 14.4476 11.3478L12.8651 12.5394C12.4053 12.8856 12.2154 13.4847 12.3926 14.0304C12.6661 14.8709 13.0289 15.6869 13.4708 16.4552C13.5999 16.6795 13.8865 16.7567 14.1109 16.6278C14.3353 16.4986 14.4124 16.212 14.2835 15.9876C13.8736 15.2755 13.5374 14.5196 13.2845 13.7406C13.2308 13.5755 13.2889 13.3939 13.4288 13.2884Z" fill="#688800"/>
</svg>
